<svg width="700" height="152" viewBox="0 0 700 152" fill="none" xmlns="http://www.w3.org/2000/svg">
<g clip-path="url(#clip0_1_83)">
<path d="M114.713 41.142C110.408 41.1419 106.146 41.9897 102.169 43.637C98.1916 45.2843 94.578 47.6988 91.5341 50.7426C88.4903 53.7865 86.0758 57.4001 84.4285 61.3771C82.7813 65.3541 81.9335 69.6166 81.9336 73.9213H147.49C147.491 65.2279 144.037 56.8905 137.89 50.7432C131.743 44.5959 123.406 41.1423 114.713 41.142Z" fill="black" stroke="black" stroke-width="1.15017"/>
<path d="M147.49 77.4512H81.9336C81.9338 86.1445 85.3875 94.4817 91.5348 100.629C97.682 106.776 106.019 110.229 114.713 110.229C123.406 110.228 131.743 106.775 137.89 100.628C144.037 94.4812 147.49 86.1442 147.49 77.4512Z" fill="black" stroke="black" stroke-width="1.15017"/>
<path d="M73.9297 48.4495V75.1265" stroke="black" stroke-width="6.13424"/>
<path d="M73.9297 93.5951V105.908L86.1543 118.22H139.128" stroke="black" stroke-width="6.13424"/>
<path d="M155.428 103.856V79.2306" stroke="black" stroke-width="6.13424"/>
<path d="M155.428 60.7619V44.3453L143.203 32.0329H86.1544" stroke="black" stroke-width="6.13424"/>
<path d="M35.2183 68.9702H49.4804L63.7425 54.6057V32.0329L82.0795 15.6163H151.353" stroke="black" stroke-width="6.13424"/>
<path d="M20.9561 77.1785H47.4429L61.705 91.5431V114.116" stroke="black" stroke-width="6.13424"/>
<path d="M75.9672 134.637H149.315L167.652 116.168V91.5431L181.914 77.1785H192.102" stroke="black" stroke-width="6.13424"/>
<path d="M167.652 36.137V56.6578L179.877 68.9702H206.364" stroke="black" stroke-width="6.13424"/>
<path d="M18.0149 80.5896C19.9279 80.5896 21.4786 79.0277 21.4786 77.101C21.4786 75.1744 19.9279 73.6125 18.0149 73.6125C16.102 73.6125 14.5513 75.1744 14.5513 77.101C14.5513 79.0277 16.102 80.5896 18.0149 80.5896Z" fill="#FF0000" stroke="#FF0000" stroke-width="1.73803"/>
<path d="M74.0444 81.3032C75.9573 81.3032 77.5081 79.7414 77.5081 77.8147C77.5081 75.888 75.9573 74.3262 74.0444 74.3262C72.1315 74.3262 70.5807 75.888 70.5807 77.8147C70.5807 79.7414 72.1315 81.3032 74.0444 81.3032Z" fill="#FF0000" stroke="#FF0000" stroke-width="1.73803"/>
<path d="M73.9051 93.9435C75.818 93.9435 77.3687 92.3816 77.3687 90.4549C77.3687 88.5283 75.818 86.9664 73.9051 86.9664C71.9921 86.9664 70.4414 88.5283 70.4414 90.4549C70.4414 92.3816 71.9921 93.9435 73.9051 93.9435Z" fill="#FF0000" stroke="#FF0000" stroke-width="1.73803"/>
<path d="M155.431 79.6307C157.344 79.6307 158.894 78.0688 158.894 76.1422C158.894 74.2155 157.344 72.6536 155.431 72.6536C153.518 72.6536 151.967 74.2155 151.967 76.1422C151.967 78.0688 153.518 79.6307 155.431 79.6307Z" fill="#FF0000" stroke="#FF0000" stroke-width="1.73803"/>
<path d="M155.419 67.3203C157.332 67.3203 158.883 65.7584 158.883 63.8317C158.883 61.9051 157.332 60.3432 155.419 60.3432C153.506 60.3432 151.956 61.9051 151.956 63.8317C151.956 65.7584 153.506 67.3203 155.419 67.3203Z" fill="#FF0000" stroke="#FF0000" stroke-width="1.73803"/>
<path d="M209.438 72.4629C211.351 72.4629 212.902 70.901 212.902 68.9744C212.902 67.0477 211.351 65.4859 209.438 65.4859C207.525 65.4859 205.975 67.0477 205.975 68.9744C205.975 70.901 207.525 72.4629 209.438 72.4629Z" fill="#FF0000" stroke="#FF0000" stroke-width="1.73803"/>
<path d="M72.9251 138.091C74.838 138.091 76.3887 136.529 76.3887 134.602C76.3887 132.676 74.838 131.114 72.9251 131.114C71.0122 131.114 69.4614 132.676 69.4614 134.602C69.4614 136.529 71.0122 138.091 72.9251 138.091Z" fill="#FF0000" stroke="#FF0000" stroke-width="1.73803"/>
<path d="M73.9357 48.9027C75.9048 48.9027 77.5012 47.2949 77.5012 45.3115C77.5012 43.3282 75.9048 41.7204 73.9357 41.7204C71.9665 41.7204 70.3701 43.3282 70.3701 45.3115C70.3701 47.2949 71.9665 48.9027 73.9357 48.9027Z" stroke="black" stroke-width="1.78915"/>
<path d="M82.9535 35.6229C84.9227 35.6229 86.519 34.0151 86.519 32.0318C86.519 30.0485 84.9227 28.4407 82.9535 28.4407C80.9843 28.4407 79.3879 30.0485 79.3879 32.0318C79.3879 34.0151 80.9843 35.6229 82.9535 35.6229Z" stroke="black" stroke-width="1.78915"/>
<path d="M154.527 19.2167C156.496 19.2167 158.092 17.6089 158.092 15.6256C158.092 13.6423 156.496 12.0345 154.527 12.0345C152.558 12.0345 150.961 13.6423 150.961 15.6256C150.961 17.6089 152.558 19.2167 154.527 19.2167Z" stroke="black" stroke-width="1.78915"/>
<path d="M167.67 36.5058C169.639 36.5058 171.236 34.8979 171.236 32.9146C171.236 30.9313 169.639 29.3235 167.67 29.3235C165.701 29.3235 164.105 30.9313 164.105 32.9146C164.105 34.8979 165.701 36.5058 167.67 36.5058Z" stroke="black" stroke-width="1.78915"/>
<path d="M195.329 80.7686C197.299 80.7686 198.895 79.1608 198.895 77.1775C198.895 75.1941 197.299 73.5863 195.329 73.5863C193.36 73.5863 191.764 75.1941 191.764 77.1775C191.764 79.1608 193.36 80.7686 195.329 80.7686Z" stroke="black" stroke-width="1.78915"/>
<path d="M155.44 110.707C157.409 110.707 159.005 109.099 159.005 107.115C159.005 105.132 157.409 103.524 155.44 103.524C153.471 103.524 151.874 105.132 151.874 107.115C151.874 109.099 153.471 110.707 155.44 110.707Z" stroke="black" stroke-width="1.78915"/>
<path d="M142.357 121.805C144.326 121.805 145.922 120.197 145.922 118.214C145.922 116.23 144.326 114.622 142.357 114.622C140.387 114.622 138.791 116.23 138.791 118.214C138.791 120.197 140.387 121.805 142.357 121.805Z" stroke="black" stroke-width="1.78915"/>
<path d="M61.6941 120.975C63.6633 120.975 65.2596 119.367 65.2596 117.384C65.2596 115.401 63.6633 113.793 61.6941 113.793C59.7249 113.793 58.1285 115.401 58.1285 117.384C58.1285 119.367 59.7249 120.975 61.6941 120.975Z" stroke="black" stroke-width="1.78915"/>
<path d="M32.4555 72.1002C34.4247 72.1002 36.021 70.4924 36.021 68.5091C36.021 66.5257 34.4247 64.9179 32.4555 64.9179C30.4863 64.9179 28.89 66.5257 28.89 68.5091C28.89 70.4924 30.4863 72.1002 32.4555 72.1002Z" stroke="black" stroke-width="1.78915"/>
<path d="M126.263 65.5979C130.256 65.5979 133.493 62.3378 133.493 58.3164C133.493 54.2949 130.256 51.0348 126.263 51.0348C122.27 51.0348 119.033 54.2949 119.033 58.3164C119.033 62.3378 122.27 65.5979 126.263 65.5979Z" fill="#FF0000" stroke="#FF0000" stroke-width="6.13424"/>
<path d="M98.1351 94.1192C100.9 94.1192 103.142 91.8616 103.142 89.0768C103.142 86.2919 100.9 84.0344 98.1351 84.0344C95.3701 84.0344 93.1287 86.2919 93.1287 89.0768C93.1287 91.8616 95.3701 94.1192 98.1351 94.1192Z" fill="#FF0000" stroke="#FF0000" stroke-width="4.24791"/>
<path d="M136.211 88.4998C138.169 88.4998 139.756 86.901 139.756 84.9288C139.756 82.9566 138.169 81.3578 136.211 81.3578C134.253 81.3578 132.665 82.9566 132.665 84.9288C132.665 86.901 134.253 88.4998 136.211 88.4998Z" fill="#FF0000" stroke="#FF0000" stroke-width="3.00833"/>
<path d="M121.913 104.488C123.661 104.488 125.078 103.061 125.078 101.301C125.078 99.5409 123.661 98.114 121.913 98.114C120.166 98.114 118.749 99.5409 118.749 101.301C118.749 103.061 120.166 104.488 121.913 104.488Z" fill="#FF0000" stroke="#FF0000" stroke-width="2.68496"/>
<path d="M93.425 70.5614C95.4183 70.5614 97.0341 68.934 97.0341 66.9265C97.0341 64.9189 95.4183 63.2915 93.425 63.2915C91.4318 63.2915 89.816 64.9189 89.816 66.9265C89.816 68.934 91.4318 70.5614 93.425 70.5614Z" fill="#FF0000" stroke="#FF0000" stroke-width="3.06221"/>
<path d="M235.43 101.547C236.809 101.547 238.075 101.735 239.229 102.111C240.407 102.463 241.423 103.002 242.275 103.729C243.153 104.431 243.83 105.309 244.307 106.362C244.808 107.39 245.059 108.594 245.059 109.973C245.059 111.051 244.896 112.105 244.57 113.133C244.269 114.161 243.755 115.101 243.028 115.954C242.301 116.781 241.348 117.458 240.169 117.985C239.015 118.487 237.586 118.737 235.881 118.737H231.856V128.743H228.207V101.547H235.43ZM235.806 115.239C236.884 115.239 237.774 115.076 238.476 114.75C239.204 114.424 239.768 114.01 240.169 113.509C240.57 112.982 240.859 112.418 241.034 111.816C241.21 111.214 241.297 110.65 241.297 110.123C241.297 109.572 241.197 109.008 240.997 108.431C240.821 107.829 240.52 107.277 240.094 106.776C239.693 106.274 239.153 105.86 238.476 105.534C237.824 105.208 237.022 105.045 236.069 105.045H231.856V115.239H235.806ZM240.282 117.308L247.391 128.743H243.178L235.956 117.421L240.282 117.308ZM250.306 120.806C250.306 119.251 250.669 117.847 251.396 116.593C252.149 115.339 253.177 114.349 254.481 113.622C255.785 112.894 257.264 112.531 258.919 112.531C260.625 112.531 262.117 112.894 263.396 113.622C264.675 114.349 265.665 115.339 266.367 116.593C267.069 117.847 267.42 119.251 267.42 120.806C267.42 122.361 267.069 123.778 266.367 125.057C265.665 126.31 264.662 127.301 263.358 128.028C262.079 128.755 260.587 129.119 258.882 129.119C257.227 129.119 255.747 128.781 254.443 128.103C253.164 127.401 252.149 126.436 251.396 125.207C250.669 123.953 250.306 122.486 250.306 120.806ZM253.804 120.844C253.804 121.847 254.03 122.762 254.481 123.59C254.932 124.392 255.534 125.032 256.286 125.508C257.064 125.984 257.916 126.223 258.844 126.223C259.822 126.223 260.687 125.984 261.44 125.508C262.217 125.032 262.819 124.392 263.245 123.59C263.672 122.762 263.885 121.847 263.885 120.844C263.885 119.841 263.672 118.938 263.245 118.135C262.819 117.308 262.217 116.656 261.44 116.179C260.687 115.678 259.822 115.427 258.844 115.427C257.891 115.427 257.026 115.678 256.249 116.179C255.497 116.681 254.895 117.346 254.443 118.173C254.017 118.976 253.804 119.866 253.804 120.844ZM281.636 129.119C280.207 129.119 278.94 128.806 277.837 128.179C276.759 127.552 275.893 126.762 275.241 125.809L275.655 124.718V128.743H272.157V99.6289H275.618V116.744L275.505 115.427C276.132 114.575 277.022 113.885 278.175 113.358C279.354 112.807 280.658 112.531 282.087 112.531C283.492 112.531 284.771 112.869 285.924 113.546C287.078 114.224 287.993 115.176 288.67 116.405C289.372 117.609 289.723 119.051 289.723 120.731C289.723 122.486 289.347 123.991 288.595 125.245C287.868 126.499 286.89 127.464 285.661 128.141C284.432 128.793 283.09 129.119 281.636 129.119ZM280.921 126.147C281.924 126.147 282.827 125.909 283.63 125.433C284.432 124.956 285.059 124.317 285.51 123.514C285.962 122.687 286.187 121.747 286.187 120.693C286.187 119.69 285.949 118.787 285.473 117.985C285.021 117.157 284.394 116.505 283.592 116.029C282.815 115.553 281.924 115.314 280.921 115.314C280.069 115.314 279.279 115.477 278.552 115.803C277.824 116.129 277.21 116.581 276.708 117.157C276.207 117.709 275.856 118.361 275.655 119.113V122.235C275.856 122.988 276.194 123.665 276.671 124.267C277.147 124.843 277.749 125.307 278.476 125.658C279.204 125.984 280.019 126.147 280.921 126.147ZM293.1 120.806C293.1 119.251 293.464 117.847 294.191 116.593C294.943 115.339 295.971 114.349 297.275 113.622C298.579 112.894 300.059 112.531 301.714 112.531C303.419 112.531 304.911 112.894 306.19 113.622C307.469 114.349 308.46 115.339 309.162 116.593C309.864 117.847 310.215 119.251 310.215 120.806C310.215 122.361 309.864 123.778 309.162 125.057C308.46 126.31 307.456 127.301 306.152 128.028C304.874 128.755 303.381 129.119 301.676 129.119C300.021 129.119 298.542 128.781 297.238 128.103C295.959 127.401 294.943 126.436 294.191 125.207C293.464 123.953 293.1 122.486 293.1 120.806ZM296.598 120.844C296.598 121.847 296.824 122.762 297.275 123.59C297.727 124.392 298.329 125.032 299.081 125.508C299.858 125.984 300.711 126.223 301.639 126.223C302.617 126.223 303.482 125.984 304.234 125.508C305.011 125.032 305.613 124.392 306.04 123.59C306.466 122.762 306.679 121.847 306.679 120.844C306.679 119.841 306.466 118.938 306.04 118.135C305.613 117.308 305.011 116.656 304.234 116.179C303.482 115.678 302.617 115.427 301.639 115.427C300.686 115.427 299.821 115.678 299.043 116.179C298.291 116.681 297.689 117.346 297.238 118.173C296.811 118.976 296.598 119.866 296.598 120.844ZM316.456 106.324H319.954V113.246H324.242V115.991H319.954V128.743H316.456V115.991H313.597V113.246H316.456V106.324ZM328.469 113.17H331.968V128.743H328.469V113.17ZM328.206 107.528C328.206 106.976 328.419 106.512 328.845 106.136C329.297 105.76 329.786 105.572 330.312 105.572C330.839 105.572 331.303 105.76 331.704 106.136C332.131 106.512 332.344 106.976 332.344 107.528C332.344 108.105 332.131 108.581 331.704 108.957C331.303 109.308 330.839 109.484 330.312 109.484C329.786 109.484 329.297 109.296 328.845 108.92C328.419 108.544 328.206 108.08 328.206 107.528ZM350.659 127.314C349.956 127.865 349.116 128.304 348.138 128.63C347.16 128.956 346.182 129.119 345.204 129.119C343.499 129.119 342.007 128.781 340.728 128.103C339.449 127.426 338.446 126.486 337.719 125.282C337.017 124.054 336.666 122.612 336.666 120.957C336.666 119.302 337.042 117.86 337.794 116.631C338.572 115.402 339.575 114.462 340.804 113.81C342.057 113.133 343.399 112.794 344.828 112.794C346.082 112.794 347.198 112.97 348.176 113.321C349.179 113.672 350.032 114.148 350.734 114.75L349.004 117.007C348.552 116.656 348.001 116.342 347.349 116.067C346.697 115.791 345.957 115.653 345.129 115.653C344.226 115.653 343.386 115.891 342.609 116.368C341.857 116.819 341.255 117.446 340.804 118.248C340.377 119.051 340.164 119.954 340.164 120.957C340.164 121.909 340.39 122.8 340.841 123.627C341.293 124.43 341.919 125.069 342.722 125.546C343.524 125.997 344.44 126.223 345.468 126.223C346.145 126.223 346.759 126.122 347.311 125.922C347.888 125.721 348.402 125.445 348.853 125.094L350.659 127.314ZM359.538 129.044C358.434 129.044 357.356 128.856 356.303 128.48C355.275 128.078 354.422 127.489 353.745 126.712L355.212 124.68C355.864 125.307 356.529 125.784 357.206 126.11C357.908 126.411 358.597 126.561 359.275 126.561C359.776 126.561 360.24 126.499 360.666 126.373C361.093 126.248 361.431 126.047 361.682 125.771C361.958 125.47 362.096 125.069 362.096 124.568C362.096 124.016 361.908 123.577 361.531 123.251C361.18 122.925 360.716 122.662 360.14 122.461C359.588 122.261 358.999 122.072 358.372 121.897C357.093 121.471 356.115 120.881 355.438 120.129C354.761 119.377 354.422 118.461 354.422 117.383C354.422 116.556 354.623 115.791 355.024 115.089C355.45 114.361 356.065 113.772 356.867 113.321C357.695 112.869 358.71 112.644 359.914 112.644C360.992 112.644 361.958 112.782 362.81 113.057C363.663 113.308 364.465 113.735 365.218 114.336L363.826 116.518C363.375 116.042 362.835 115.69 362.208 115.465C361.582 115.239 361.017 115.114 360.516 115.089C360.09 115.064 359.676 115.126 359.275 115.277C358.898 115.427 358.585 115.64 358.334 115.916C358.083 116.192 357.958 116.518 357.958 116.894C357.958 117.421 358.134 117.847 358.485 118.173C358.836 118.499 359.287 118.762 359.839 118.963C360.416 119.139 360.98 119.327 361.531 119.527C362.309 119.753 362.998 120.054 363.6 120.43C364.202 120.806 364.679 121.27 365.03 121.822C365.406 122.373 365.594 123.063 365.594 123.891C365.594 124.818 365.368 125.684 364.917 126.486C364.49 127.263 363.826 127.89 362.923 128.367C362.045 128.818 360.917 129.044 359.538 129.044ZM383.259 101.547H399.396V105.045H386.908V113.735H397.854V117.195H386.908V128.743H383.259V101.547ZM401.17 120.806C401.17 119.251 401.533 117.847 402.261 116.593C403.013 115.339 404.041 114.349 405.345 113.622C406.649 112.894 408.128 112.531 409.784 112.531C411.489 112.531 412.981 112.894 414.26 113.622C415.539 114.349 416.529 115.339 417.231 116.593C417.933 117.847 418.285 119.251 418.285 120.806C418.285 122.361 417.933 123.778 417.231 125.057C416.529 126.31 415.526 127.301 414.222 128.028C412.943 128.755 411.451 129.119 409.746 129.119C408.091 129.119 406.611 128.781 405.307 128.103C404.028 127.401 403.013 126.436 402.261 125.207C401.533 123.953 401.17 122.486 401.17 120.806ZM404.668 120.844C404.668 121.847 404.894 122.762 405.345 123.59C405.796 124.392 406.398 125.032 407.15 125.508C407.928 125.984 408.78 126.223 409.708 126.223C410.686 126.223 411.551 125.984 412.304 125.508C413.081 125.032 413.683 124.392 414.109 123.59C414.536 122.762 414.749 121.847 414.749 120.844C414.749 119.841 414.536 118.938 414.109 118.135C413.683 117.308 413.081 116.656 412.304 116.179C411.551 115.678 410.686 115.427 409.708 115.427C408.755 115.427 407.89 115.678 407.113 116.179C406.361 116.681 405.759 117.346 405.307 118.173C404.881 118.976 404.668 119.866 404.668 120.844ZM426.143 113.17L426.482 117.684L426.294 117.082C426.695 116.129 427.272 115.327 428.024 114.675C428.801 113.998 429.604 113.484 430.431 113.133C431.284 112.757 432.024 112.568 432.651 112.568L432.462 116.029C431.284 115.954 430.243 116.179 429.34 116.706C428.463 117.233 427.761 117.935 427.234 118.813C426.732 119.69 426.482 120.631 426.482 121.634V128.743H423.021V113.17H426.143ZM469.904 126.712C469.452 127.013 468.838 127.351 468.061 127.727C467.283 128.103 466.368 128.417 465.315 128.668C464.287 128.918 463.158 129.044 461.929 129.044C459.823 129.019 457.917 128.643 456.212 127.915C454.532 127.188 453.102 126.198 451.924 124.944C450.745 123.69 449.83 122.248 449.178 120.618C448.551 118.963 448.238 117.208 448.238 115.352C448.238 113.321 448.564 111.453 449.216 109.747C449.893 108.017 450.833 106.525 452.037 105.271C453.24 103.992 454.657 103.002 456.287 102.3C457.942 101.597 459.748 101.246 461.704 101.246C463.334 101.246 464.813 101.472 466.142 101.923C467.471 102.35 468.612 102.864 469.565 103.466L468.098 106.851C467.346 106.349 466.431 105.873 465.352 105.422C464.299 104.97 463.121 104.745 461.817 104.745C460.487 104.745 459.234 105.008 458.055 105.534C456.876 106.061 455.836 106.801 454.933 107.754C454.03 108.707 453.316 109.823 452.789 111.101C452.287 112.355 452.037 113.709 452.037 115.164C452.037 116.643 452.262 118.023 452.714 119.302C453.19 120.555 453.855 121.646 454.707 122.574C455.585 123.502 456.638 124.229 457.867 124.756C459.096 125.282 460.475 125.546 462.005 125.546C463.384 125.546 464.613 125.332 465.691 124.906C466.769 124.48 467.659 124.003 468.362 123.477L469.904 126.712ZM480.11 129.345C478.706 129.345 477.54 128.918 476.612 128.066C475.709 127.188 475.233 126.06 475.182 124.68V113.17H478.681V123.439C478.731 124.292 478.969 124.981 479.395 125.508C479.847 126.035 480.549 126.31 481.502 126.336C482.379 126.336 483.157 126.085 483.834 125.583C484.536 125.057 485.1 124.354 485.527 123.477C485.953 122.574 486.166 121.558 486.166 120.43V113.17H489.664V128.743H486.467L486.166 124.906L486.354 125.583C486.053 126.31 485.589 126.962 484.962 127.539C484.361 128.091 483.646 128.53 482.818 128.856C481.991 129.182 481.088 129.345 480.11 129.345ZM498.839 113.17L499.177 117.684L498.989 117.082C499.39 116.129 499.967 115.327 500.719 114.675C501.497 113.998 502.299 113.484 503.127 113.133C503.979 112.757 504.719 112.568 505.346 112.568L505.158 116.029C503.979 115.954 502.939 116.179 502.036 116.706C501.158 117.233 500.456 117.935 499.929 118.813C499.428 119.69 499.177 120.631 499.177 121.634V128.743H495.716V113.17H498.839ZM509.859 113.17H513.357V128.743H509.859V113.17ZM509.595 107.528C509.595 106.976 509.809 106.512 510.235 106.136C510.686 105.76 511.175 105.572 511.702 105.572C512.229 105.572 512.692 105.76 513.094 106.136C513.52 106.512 513.733 106.976 513.733 107.528C513.733 108.105 513.52 108.581 513.094 108.957C512.692 109.308 512.229 109.484 511.702 109.484C511.175 109.484 510.686 109.296 510.235 108.92C509.809 108.544 509.595 108.08 509.595 107.528ZM518.055 120.806C518.055 119.251 518.419 117.847 519.146 116.593C519.898 115.339 520.927 114.349 522.231 113.622C523.535 112.894 525.014 112.531 526.669 112.531C528.374 112.531 529.866 112.894 531.145 113.622C532.424 114.349 533.415 115.339 534.117 116.593C534.819 117.847 535.17 119.251 535.17 120.806C535.17 122.361 534.819 123.778 534.117 125.057C533.415 126.31 532.412 127.301 531.108 128.028C529.829 128.755 528.337 129.119 526.632 129.119C524.977 129.119 523.497 128.781 522.193 128.103C520.914 127.401 519.898 126.436 519.146 125.207C518.419 123.953 518.055 122.486 518.055 120.806ZM521.554 120.844C521.554 121.847 521.779 122.762 522.231 123.59C522.682 124.392 523.284 125.032 524.036 125.508C524.814 125.984 525.666 126.223 526.594 126.223C527.572 126.223 528.437 125.984 529.189 125.508C529.967 125.032 530.569 124.392 530.995 123.59C531.421 122.762 531.634 121.847 531.634 120.844C531.634 119.841 531.421 118.938 530.995 118.135C530.569 117.308 529.967 116.656 529.189 116.179C528.437 115.678 527.572 115.427 526.594 115.427C525.641 115.427 524.776 115.678 523.999 116.179C523.246 116.681 522.644 117.346 522.193 118.173C521.767 118.976 521.554 119.866 521.554 120.844ZM544.834 129.345C543.43 129.345 542.264 128.918 541.336 128.066C540.433 127.188 539.957 126.06 539.907 124.68V113.17H543.405V123.439C543.455 124.292 543.693 124.981 544.12 125.508C544.571 126.035 545.273 126.31 546.226 126.336C547.104 126.336 547.881 126.085 548.558 125.583C549.26 125.057 549.825 124.354 550.251 123.477C550.677 122.574 550.89 121.558 550.89 120.43V113.17H554.388V128.743H551.191L550.89 124.906L551.078 125.583C550.777 126.31 550.314 126.962 549.687 127.539C549.085 128.091 548.37 128.53 547.543 128.856C546.715 129.182 545.812 129.345 544.834 129.345ZM564.804 129.044C563.701 129.044 562.622 128.856 561.569 128.48C560.541 128.078 559.688 127.489 559.011 126.712L560.478 124.68C561.13 125.307 561.795 125.784 562.472 126.11C563.174 126.411 563.864 126.561 564.541 126.561C565.042 126.561 565.506 126.499 565.932 126.373C566.359 126.248 566.697 126.047 566.948 125.771C567.224 125.47 567.362 125.069 567.362 124.568C567.362 124.016 567.174 123.577 566.798 123.251C566.447 122.925 565.983 122.662 565.406 122.461C564.854 122.261 564.265 122.072 563.638 121.897C562.359 121.471 561.381 120.881 560.704 120.129C560.027 119.377 559.688 118.461 559.688 117.383C559.688 116.556 559.889 115.791 560.29 115.089C560.717 114.361 561.331 113.772 562.133 113.321C562.961 112.869 563.976 112.644 565.18 112.644C566.258 112.644 567.224 112.782 568.077 113.057C568.929 113.308 569.732 113.735 570.484 114.336L569.092 116.518C568.641 116.042 568.102 115.69 567.475 115.465C566.848 115.239 566.284 115.114 565.782 115.089C565.356 115.064 564.942 115.126 564.541 115.277C564.165 115.427 563.851 115.64 563.6 115.916C563.35 116.192 563.224 116.518 563.224 116.894C563.224 117.421 563.4 117.847 563.751 118.173C564.102 118.499 564.553 118.762 565.105 118.963C565.682 119.139 566.246 119.327 566.798 119.527C567.575 119.753 568.265 120.054 568.866 120.43C569.468 120.806 569.945 121.27 570.296 121.822C570.672 122.373 570.86 123.063 570.86 123.891C570.86 124.818 570.634 125.684 570.183 126.486C569.757 127.263 569.092 127.89 568.189 128.367C567.312 128.818 566.183 129.044 564.804 129.044ZM588.525 128.743V100.682H588.563L602.819 120.919L601.277 120.618L615.495 100.682H615.57V128.743H611.959V108.957L612.185 110.801L601.916 125.32H601.841L591.422 110.801L592.061 109.108V128.743H588.525ZM622.52 113.17H626.018V128.743H622.52V113.17ZM622.257 107.528C622.257 106.976 622.47 106.512 622.896 106.136C623.348 105.76 623.837 105.572 624.363 105.572C624.89 105.572 625.354 105.76 625.755 106.136C626.181 106.512 626.394 106.976 626.394 107.528C626.394 108.105 626.181 108.581 625.755 108.957C625.354 109.308 624.89 109.484 624.363 109.484C623.837 109.484 623.348 109.296 622.896 108.92C622.47 108.544 622.257 108.08 622.257 107.528ZM635.193 113.17L635.494 116.969L635.343 116.368C635.845 115.214 636.66 114.299 637.788 113.622C638.917 112.92 640.221 112.568 641.7 112.568C643.18 112.568 644.383 113.007 645.311 113.885C646.264 114.738 646.753 115.853 646.778 117.233V128.743H643.242V118.474C643.217 117.621 642.967 116.932 642.49 116.405C642.039 115.853 641.324 115.578 640.346 115.578C639.443 115.578 638.628 115.828 637.901 116.33C637.174 116.831 636.597 117.521 636.171 118.399C635.77 119.276 635.569 120.292 635.569 121.446V128.743H632.071V113.17H635.193ZM659.181 129.119C657.752 129.119 656.448 128.781 655.269 128.103C654.116 127.401 653.2 126.423 652.523 125.169C651.846 123.891 651.508 122.424 651.508 120.769C651.508 119.038 651.859 117.559 652.561 116.33C653.288 115.101 654.266 114.161 655.495 113.509C656.724 112.857 658.103 112.531 659.633 112.531C660.861 112.531 662.027 112.794 663.131 113.321C664.259 113.847 665.137 114.575 665.764 115.502L665.613 116.744V99.6289H669.074V128.743H665.576V124.869L665.952 125.847C665.225 126.799 664.284 127.589 663.131 128.216C661.977 128.818 660.661 129.119 659.181 129.119ZM660.272 126.147C661.2 126.147 662.027 125.984 662.755 125.658C663.482 125.307 664.084 124.831 664.56 124.229C665.037 123.627 665.375 122.913 665.576 122.085V119.151C665.375 118.399 665.012 117.747 664.485 117.195C663.983 116.618 663.369 116.167 662.642 115.841C661.94 115.49 661.15 115.314 660.272 115.314C659.319 115.314 658.441 115.553 657.639 116.029C656.862 116.48 656.235 117.107 655.758 117.91C655.282 118.712 655.044 119.64 655.044 120.693C655.044 121.721 655.282 122.649 655.758 123.477C656.235 124.279 656.874 124.931 657.677 125.433C658.479 125.909 659.344 126.147 660.272 126.147ZM679.522 129.044C678.419 129.044 677.341 128.856 676.288 128.48C675.259 128.078 674.407 127.489 673.73 126.712L675.197 124.68C675.849 125.307 676.513 125.784 677.19 126.11C677.892 126.411 678.582 126.561 679.259 126.561C679.761 126.561 680.225 126.499 680.651 126.373C681.077 126.248 681.416 126.047 681.666 125.771C681.942 125.47 682.08 125.069 682.08 124.568C682.08 124.016 681.892 123.577 681.516 123.251C681.165 122.925 680.701 122.662 680.124 122.461C679.573 122.261 678.983 122.072 678.356 121.897C677.077 121.471 676.099 120.881 675.422 120.129C674.745 119.377 674.407 118.461 674.407 117.383C674.407 116.556 674.607 115.791 675.009 115.089C675.435 114.361 676.049 113.772 676.852 113.321C677.679 112.869 678.695 112.644 679.899 112.644C680.977 112.644 681.942 112.782 682.795 113.057C683.648 113.308 684.45 113.735 685.202 114.336L683.811 116.518C683.359 116.042 682.82 115.69 682.193 115.465C681.566 115.239 681.002 115.114 680.5 115.089C680.074 115.064 679.66 115.126 679.259 115.277C678.883 115.427 678.569 115.64 678.319 115.916C678.068 116.192 677.943 116.518 677.943 116.894C677.943 117.421 678.118 117.847 678.469 118.173C678.82 118.499 679.272 118.762 679.823 118.963C680.4 119.139 680.964 119.327 681.516 119.527C682.293 119.753 682.983 120.054 683.585 120.43C684.187 120.806 684.663 121.27 685.014 121.822C685.39 122.373 685.578 123.063 685.578 123.891C685.578 124.818 685.353 125.684 684.901 126.486C684.475 127.263 683.811 127.89 682.908 128.367C682.03 128.818 680.902 129.044 679.522 129.044Z" fill="black"/>
<path d="M258.985 10.0749C266.766 10.0749 272.957 11.665 277.558 14.8452C282.16 17.9578 284.46 22.6266 284.46 28.8517C284.46 33.4529 283.31 37.3098 281.009 40.4223C278.776 43.4672 275.698 45.7678 271.773 47.3241C267.916 48.8127 263.484 49.557 258.477 49.557L256.143 41.6403C262.3 41.6403 267.747 42.4861 272.484 44.1777C277.288 45.8693 281.077 48.3052 283.851 51.4855C286.625 54.598 288.013 58.3534 288.013 62.7516C288.013 66.8114 287.268 70.2623 285.78 73.1042C284.359 75.8785 282.396 78.1452 279.893 79.9045C277.457 81.5961 274.683 82.8479 271.57 83.6599C268.458 84.4042 265.243 84.7763 261.928 84.7763H237.061V10.0749H258.985ZM260.71 40.6253C263.62 40.6253 265.751 39.7457 267.104 37.9864C268.525 36.2271 269.236 34.231 269.236 31.9981C269.236 29.4269 268.356 27.4984 266.597 26.2128C264.905 24.9272 262.605 24.2844 259.695 24.2844H251.778V40.6253H260.71ZM261.217 71.0743C263.383 71.0743 265.345 70.8036 267.104 70.2623C268.864 69.6533 270.251 68.7399 271.266 67.5219C272.281 66.2363 272.788 64.6462 272.788 62.7516C272.788 60.5863 272.179 58.9624 270.961 57.8797C269.743 56.7295 268.153 55.9513 266.191 55.5453C264.296 55.0717 262.3 54.8348 260.202 54.8348H251.778V71.0743H261.217ZM315.971 57.1693C315.971 59.5375 316.681 61.8043 318.102 63.9695C319.523 66.1348 321.384 67.8941 323.685 69.2474C326.053 70.6006 328.624 71.2773 331.398 71.2773C334.443 71.2773 337.15 70.6006 339.518 69.2474C341.886 67.8941 343.747 66.1348 345.1 63.9695C346.521 61.8043 347.232 59.5375 347.232 57.1693V10.0749H361.746V57.4738C361.746 62.9546 360.393 67.8264 357.686 72.0893C354.979 76.2845 351.326 79.6 346.724 82.0359C342.123 84.4042 337.015 85.5883 331.398 85.5883C325.85 85.5883 320.775 84.4042 316.174 82.0359C311.64 79.6 308.02 76.2845 305.314 72.0893C302.607 67.8264 301.254 62.9546 301.254 57.4738V10.0749H315.971V57.1693ZM440.087 77.2656C439.207 78.2129 437.82 79.194 435.926 80.209C434.031 81.1563 431.832 82.0359 429.328 82.8479C426.892 83.6599 424.389 84.3027 421.818 84.7763C419.246 85.3177 416.81 85.5883 414.51 85.5883C408.42 85.5883 402.939 84.7087 398.067 82.9494C393.196 81.1225 389.034 78.6189 385.583 75.4387C382.132 72.1908 379.493 68.3677 377.667 63.9695C375.84 59.5714 374.926 54.7672 374.926 49.557C374.926 42.7229 375.941 36.8023 377.971 31.7951C380.069 26.7203 382.877 22.5251 386.395 19.2096C389.981 15.8263 394.075 13.3228 398.676 11.6988C403.345 10.0749 408.217 9.26289 413.292 9.26289C418.096 9.26289 422.494 9.8042 426.486 10.8868C430.479 11.9018 433.862 13.1874 436.636 14.7437L431.866 28.4457C430.648 27.7691 429.024 27.0925 426.994 26.4158C424.964 25.7392 422.9 25.1978 420.803 24.7919C418.705 24.3182 416.844 24.0814 415.22 24.0814C411.16 24.0814 407.574 24.5889 404.462 25.6038C401.349 26.6188 398.71 28.1412 396.545 30.1712C394.447 32.2011 392.857 34.7385 391.775 37.7834C390.692 40.7607 390.151 44.2454 390.151 48.2376C390.151 51.7561 390.76 54.9363 391.978 57.7782C393.195 60.5525 394.887 62.9207 397.052 64.883C399.285 66.8453 401.89 68.3339 404.868 69.3489C407.913 70.3638 411.262 70.8713 414.916 70.8713C417.013 70.8713 418.942 70.736 420.701 70.4653C422.46 70.127 423.949 69.6195 425.167 68.9429V59.9097H412.277V45.7002H440.087V77.2656ZM478.729 10.0749C486.51 10.0749 492.701 11.665 497.302 14.8452C501.904 17.9578 504.204 22.6266 504.204 28.8517C504.204 33.4529 503.054 37.3098 500.753 40.4223C498.52 43.4672 495.442 45.7678 491.517 47.3241C487.66 48.8127 483.228 49.557 478.221 49.557L475.887 41.6403C482.044 41.6403 487.491 42.4861 492.228 44.1777C497.032 45.8693 500.821 48.3052 503.595 51.4855C506.369 54.598 507.757 58.3534 507.757 62.7516C507.757 66.8114 507.012 70.2623 505.524 73.1042C504.103 75.8785 502.14 78.1452 499.637 79.9045C497.201 81.5961 494.427 82.8479 491.314 83.6599C488.202 84.4042 484.988 84.7763 481.672 84.7763H456.805V10.0749H478.729ZM480.454 40.6253C483.364 40.6253 485.495 39.7457 486.848 37.9864C488.269 36.2271 488.98 34.231 488.98 31.9981C488.98 29.4269 488.1 27.4984 486.341 26.2128C484.649 24.9272 482.349 24.2844 479.439 24.2844H471.522V40.6253H480.454ZM480.961 71.0743C483.127 71.0743 485.089 70.8036 486.848 70.2623C488.608 69.6533 489.995 68.7399 491.01 67.5219C492.025 66.2363 492.532 64.6462 492.532 62.7516C492.532 60.5863 491.923 58.9624 490.705 57.8797C489.487 56.7295 487.897 55.9513 485.935 55.5453C484.04 55.0717 482.044 54.8348 479.947 54.8348H471.522V71.0743H480.961ZM517.953 47.5271C517.953 42.3846 518.934 37.5128 520.896 32.9116C522.859 28.3104 525.565 24.2505 529.016 20.732C532.535 17.1458 536.595 14.3377 541.196 12.3078C545.797 10.2779 550.736 9.26289 556.014 9.26289C561.224 9.26289 566.13 10.2779 570.731 12.3078C575.332 14.3377 579.392 17.1458 582.911 20.732C586.497 24.2505 589.271 28.3104 591.234 32.9116C593.263 37.5128 594.278 42.3846 594.278 47.5271C594.278 52.8049 593.263 57.7444 591.234 62.3456C589.271 66.9468 586.497 71.0066 582.911 74.5252C579.392 77.9761 575.332 80.6826 570.731 82.6449C566.13 84.6072 561.224 85.5883 556.014 85.5883C550.736 85.5883 545.797 84.6072 541.196 82.6449C536.595 80.6826 532.535 77.9761 529.016 74.5252C525.565 71.0066 522.859 66.9468 520.896 62.3456C518.934 57.7444 517.953 52.8049 517.953 47.5271ZM533.178 47.5271C533.178 50.8426 533.753 53.9552 534.903 56.8648C536.121 59.7067 537.779 62.2441 539.876 64.477C542.042 66.6423 544.511 68.3339 547.286 69.5519C550.127 70.7698 553.206 71.3788 556.522 71.3788C559.702 71.3788 562.645 70.7698 565.352 69.5519C568.126 68.3339 570.528 66.6423 572.558 64.477C574.588 62.2441 576.178 59.7067 577.329 56.8648C578.479 53.9552 579.054 50.8426 579.054 47.5271C579.054 44.1439 578.445 40.9975 577.227 38.0879C576.077 35.1783 574.453 32.6409 572.355 30.4757C570.325 28.2427 567.923 26.5173 565.149 25.2993C562.375 24.0814 559.364 23.4724 556.116 23.4724C552.868 23.4724 549.857 24.0814 547.083 25.2993C544.308 26.5173 541.872 28.2427 539.775 30.4757C537.677 32.6409 536.053 35.1783 534.903 38.0879C533.753 40.9975 533.178 44.1439 533.178 47.5271ZM599.293 10.0749H618.07L666.788 84.7763H647.808L599.293 10.0749ZM598.278 84.7763L624.87 42.9597L631.772 57.7782L616.547 84.7763H598.278ZM632.787 37.4789L648.214 10.0749H666.078L640.399 50.166L632.787 37.4789Z" fill="black"/>
<path d="M277.558 14.8452L276.757 16.0049L276.769 16.0128L277.558 14.8452ZM281.009 40.4223L279.876 39.5844L279.873 39.5887L281.009 40.4223ZM271.773 47.3241L272.281 48.6393L272.293 48.6345L271.773 47.3241ZM258.477 49.557L257.125 49.9557L257.423 50.9667H258.477V49.557ZM256.143 41.6403V40.2306H254.257L254.791 42.039L256.143 41.6403ZM272.484 44.1777L272.009 45.5053L272.015 45.5074L272.484 44.1777ZM283.851 51.4855L282.789 52.4121L282.794 52.4178L282.799 52.4234L283.851 51.4855ZM285.78 73.1042L284.531 72.4501L284.525 72.4616L285.78 73.1042ZM279.893 79.9045L280.697 81.0624L280.703 81.0579L279.893 79.9045ZM271.57 83.6599L271.898 85.0309L271.912 85.0275L271.926 85.0239L271.57 83.6599ZM237.061 84.7763H235.652V86.186H237.061V84.7763ZM237.061 10.0749V8.66518H235.652V10.0749H237.061ZM267.104 37.9864L266.008 37.1007L265.997 37.1137L265.987 37.1269L267.104 37.9864ZM266.597 26.2128L265.744 27.3351L265.754 27.3432L265.765 27.351L266.597 26.2128ZM251.778 24.2844V22.8747H250.369V24.2844H251.778ZM251.778 40.6253H250.369V42.035H251.778V40.6253ZM267.104 70.2623L267.519 71.6097L267.542 71.6025L267.565 71.5944L267.104 70.2623ZM271.266 67.5219L272.349 68.4244L272.36 68.41L272.372 68.3954L271.266 67.5219ZM270.961 57.8797L269.993 58.9046L270.009 58.9192L270.025 58.9333L270.961 57.8797ZM266.191 55.5453L265.849 56.9129L265.877 56.9199L265.905 56.9258L266.191 55.5453ZM251.778 54.8348V53.4252H250.369V54.8348H251.778ZM251.778 71.0743H250.369V72.484H251.778V71.0743ZM258.985 11.4845C266.588 11.4845 272.467 13.0398 276.757 16.0048L278.36 13.6856C273.447 10.2901 266.944 8.66518 258.985 8.66518V11.4845ZM276.769 16.0128C280.93 18.8282 283.05 23.0285 283.05 28.8517H285.87C285.87 22.2247 283.389 17.0873 278.348 13.6776L276.769 16.0128ZM283.05 28.8517C283.05 33.2099 281.965 36.7577 279.876 39.5844L282.143 41.2602C284.655 37.8618 285.87 33.6959 285.87 28.8517H283.05ZM279.873 39.5887C277.814 42.3952 274.962 44.5433 271.253 46.0137L272.293 48.6345C276.434 46.9924 279.738 44.5393 282.146 41.256L279.873 39.5887ZM271.266 46.009C267.601 47.4234 263.346 48.1474 258.477 48.1474V50.9667C263.622 50.9667 268.232 50.202 272.281 48.6392L271.266 46.009ZM259.829 49.1583L257.495 41.2416L254.791 42.039L257.125 49.9557L259.829 49.1583ZM256.143 43.05C262.173 43.05 267.455 43.8786 272.009 45.5053L272.958 42.8502C268.039 41.0936 262.427 40.2306 256.143 40.2306V43.05ZM272.015 45.5074C276.637 47.1348 280.205 49.4497 282.789 52.4121L284.913 50.5588C281.949 47.1608 277.938 44.6038 272.952 42.8481L272.015 45.5074ZM282.799 52.4234C285.33 55.2627 286.603 58.6786 286.603 62.7516H289.422C289.422 58.0282 287.921 53.9334 284.904 50.5475L282.799 52.4234ZM286.603 62.7516C286.603 66.6427 285.889 69.8566 284.531 72.4501L287.028 73.7583C288.647 70.6681 289.422 66.9802 289.422 62.7516H286.603ZM284.525 72.4616C283.206 75.036 281.395 77.126 279.082 78.7511L280.703 81.0579C283.398 79.1644 285.511 76.7209 287.034 73.7469L284.525 72.4616ZM279.089 78.7466C276.8 80.336 274.18 81.5222 271.214 82.2959L271.926 85.0239C275.185 84.1736 278.114 82.8562 280.697 81.0624L279.089 78.7466ZM271.242 82.2889C268.241 83.0066 265.137 83.3667 261.928 83.3667V86.186C265.35 86.186 268.674 85.8018 271.898 85.0309L271.242 82.2889ZM261.928 83.3667H237.061V86.186H261.928V83.3667ZM238.471 84.7763V10.0749H235.652V84.7763H238.471ZM237.061 11.4845H258.985V8.66518H237.061V11.4845ZM260.71 42.035C263.909 42.035 266.523 41.0545 268.222 38.8459L265.987 37.1269C264.979 38.4369 263.33 39.2157 260.71 39.2157V42.035ZM268.201 38.8722C269.822 36.8656 270.645 34.5579 270.645 31.9981H267.826C267.826 33.9042 267.229 35.5887 266.008 37.1007L268.201 38.8722ZM270.645 31.9981C270.645 29.069 269.619 26.6757 267.429 25.0747L265.765 27.351C267.093 28.3212 267.826 29.7848 267.826 31.9981H270.645ZM267.45 25.0905C265.436 23.5604 262.801 22.8747 259.695 22.8747V25.6941C262.409 25.6941 264.374 26.294 265.744 27.3351L267.45 25.0905ZM259.695 22.8747H251.778V25.6941H259.695V22.8747ZM250.369 24.2844V40.6253H253.188V24.2844H250.369ZM251.778 42.035H260.71V39.2157H251.778V42.035ZM261.217 72.484C263.499 72.484 265.604 72.1988 267.519 71.6097L266.69 68.915C265.086 69.4084 263.266 69.6646 261.217 69.6646V72.484ZM267.565 71.5944C269.524 70.9163 271.143 69.8716 272.349 68.4244L270.183 66.6195C269.359 67.6082 268.203 68.3904 266.643 68.9302L267.565 71.5944ZM272.372 68.3954C273.613 66.8231 274.198 64.9112 274.198 62.7516H271.378C271.378 64.3812 270.948 65.6495 270.159 66.6484L272.372 68.3954ZM274.198 62.7516C274.198 60.3232 273.507 58.2568 271.898 56.8261L270.025 58.9333C270.851 59.668 271.378 60.8494 271.378 62.7516H274.198ZM271.929 56.8549C270.487 55.4926 268.644 54.6134 266.476 54.1649L265.905 56.9258C267.662 57.2893 269 57.9663 269.993 58.9046L271.929 56.8549ZM266.533 54.1777C264.518 53.6742 262.407 53.4252 260.202 53.4252V56.2445C262.193 56.2445 264.074 56.4692 265.849 56.9129L266.533 54.1777ZM260.202 53.4252H251.778V56.2445H260.202V53.4252ZM250.369 54.8348V71.0743H253.188V54.8348H250.369ZM251.778 72.484H261.217V69.6646H251.778V72.484ZM318.102 63.9695L316.924 64.743L316.924 64.743L318.102 63.9695ZM323.685 69.2474L322.97 70.4624L322.978 70.4669L322.985 70.4713L323.685 69.2474ZM339.518 69.2474L338.819 68.0234L338.819 68.0234L339.518 69.2474ZM345.1 63.9695L343.922 63.1961L343.913 63.2092L343.905 63.2224L345.1 63.9695ZM347.232 10.0749V8.66518H345.822V10.0749H347.232ZM361.746 10.0749H363.156V8.66518H361.746V10.0749ZM357.686 72.0893L358.871 72.8535L358.876 72.8449L357.686 72.0893ZM346.724 82.0359L347.369 83.2893L347.377 83.2856L347.384 83.2818L346.724 82.0359ZM316.174 82.0359L315.507 83.2777L315.518 83.2836L315.529 83.2893L316.174 82.0359ZM305.314 72.0893L304.124 72.8449L304.129 72.8535L305.314 72.0893ZM301.254 10.0749V8.66518H299.844V10.0749H301.254ZM315.971 10.0749H317.381V8.66518H315.971V10.0749ZM314.561 57.1693C314.561 59.838 315.367 62.3703 316.924 64.743L319.281 63.1961C317.996 61.2382 317.381 59.2371 317.381 57.1693H314.561ZM316.924 64.743C318.467 67.0947 320.489 69.0029 322.97 70.4624L324.399 68.0323C322.279 66.7852 320.579 65.1749 319.281 63.1961L316.924 64.743ZM322.985 70.4713C325.57 71.9485 328.383 72.687 331.398 72.687V69.8676C328.865 69.8676 326.535 69.2528 324.384 68.0234L322.985 70.4713ZM331.398 72.687C334.659 72.687 337.612 71.96 340.217 70.4713L338.819 68.0234C336.687 69.2413 334.227 69.8676 331.398 69.8676V72.687ZM340.217 70.4713C342.774 69.0106 344.811 67.0928 346.296 64.7167L343.905 63.2224C342.684 65.1768 340.999 66.7775 338.819 68.0234L340.217 70.4713ZM346.279 64.743C347.836 62.3703 348.642 59.838 348.642 57.1693H345.822C345.822 59.2371 345.207 61.2382 343.922 63.1961L346.279 64.743ZM348.642 57.1693V10.0749H345.822V57.1693H348.642ZM347.232 11.4845H361.746V8.66518H347.232V11.4845ZM360.336 10.0749V57.4738H363.156V10.0749H360.336ZM360.336 57.4738C360.336 62.7107 359.047 67.316 356.496 71.3337L358.876 72.8449C361.738 68.3368 363.156 63.1984 363.156 57.4738H360.336ZM356.501 71.325C353.931 75.3086 350.462 78.4621 346.065 80.7901L347.384 83.2818C352.189 80.7379 356.027 77.2604 358.871 72.8535L356.501 71.325ZM346.079 80.7825C341.694 83.0395 336.81 84.1786 331.398 84.1786V86.998C337.219 86.998 342.552 85.7689 347.369 83.2893L346.079 80.7825ZM331.398 84.1786C326.058 84.1786 321.206 83.0407 316.819 80.7825L315.529 83.2893C320.344 85.7676 325.642 86.998 331.398 86.998V84.1786ZM316.841 80.7942C312.511 78.4675 309.072 75.3135 306.498 71.325L304.129 72.8535C306.969 77.2554 310.77 80.7325 315.507 83.2777L316.841 80.7942ZM306.504 71.3337C303.953 67.316 302.664 62.7107 302.664 57.4738H299.844C299.844 63.1984 301.261 68.3368 304.124 72.8449L306.504 71.3337ZM302.664 57.4738V10.0749H299.844V57.4738H302.664ZM301.254 11.4845H315.971V8.66518H301.254V11.4845ZM314.561 10.0749V57.1693H317.381V10.0749H314.561ZM440.087 77.2656L441.12 78.2248L441.497 77.8192V77.2656H440.087ZM435.926 80.209L436.556 81.4698L436.574 81.461L436.591 81.4516L435.926 80.209ZM429.328 82.8479L428.893 81.5069L428.883 81.5106L429.328 82.8479ZM421.818 84.7763L421.562 83.39L421.545 83.3932L421.527 83.3969L421.818 84.7763ZM398.067 82.9494L397.572 84.2693L397.58 84.2723L397.589 84.2753L398.067 82.9494ZM385.583 75.4387L384.617 76.4652L384.623 76.4702L384.628 76.4753L385.583 75.4387ZM377.667 63.9695L378.968 63.4288L378.968 63.4288L377.667 63.9695ZM377.971 31.7951L376.668 31.2566L376.665 31.2655L377.971 31.7951ZM386.395 19.2096L387.362 20.2355L387.363 20.2349L386.395 19.2096ZM398.676 11.6988L398.213 10.3674L398.207 10.3695L398.676 11.6988ZM426.486 10.8868L426.117 12.2474L426.128 12.2503L426.139 12.253L426.486 10.8868ZM436.636 14.7437L437.967 15.2072L438.356 14.092L437.326 13.5143L436.636 14.7437ZM431.866 28.4457L431.181 29.678L432.646 30.4919L433.197 28.9092L431.866 28.4457ZM426.994 26.4158L427.44 25.0785L427.44 25.0785L426.994 26.4158ZM420.803 24.7919L420.492 26.1669L420.513 26.1717L420.535 26.1759L420.803 24.7919ZM404.462 25.6038L404.899 26.9441L404.899 26.9441L404.462 25.6038ZM396.545 30.1712L395.581 29.1428L395.573 29.1504L395.565 29.1582L396.545 30.1712ZM391.775 37.7834L393.099 38.2652L393.103 38.2557L391.775 37.7834ZM391.978 57.7782L390.682 58.3336L390.687 58.3449L391.978 57.7782ZM397.052 64.883L396.106 65.9276L396.114 65.9348L396.122 65.9419L397.052 64.883ZM404.868 69.3489L404.413 70.6832L404.422 70.6862L404.868 69.3489ZM420.701 70.4653L420.915 71.8586L420.941 71.8546L420.967 71.8496L420.701 70.4653ZM425.167 68.9429L425.852 70.1751L426.577 69.7723V68.9429H425.167ZM425.167 59.9097H426.577V58.5H425.167V59.9097ZM412.277 59.9097H410.867V61.3194H412.277V59.9097ZM412.277 45.7002V44.2905H410.867V45.7002H412.277ZM440.087 45.7002H441.497V44.2905H440.087V45.7002ZM439.054 76.3064C438.327 77.0889 437.096 77.983 435.26 78.9664L436.591 81.4516C438.545 80.4051 440.087 79.3369 441.12 78.2248L439.054 76.3064ZM435.295 78.9481C433.477 79.8574 431.345 80.7118 428.893 81.507L429.763 84.1888C432.318 83.3601 434.585 82.4552 436.556 81.4698L435.295 78.9481ZM428.883 81.5106C426.51 82.3014 424.07 82.928 421.562 83.39L422.073 86.1627C424.708 85.6774 427.275 85.0183 429.774 84.1852L428.883 81.5106ZM421.527 83.3969C419.038 83.9209 416.7 84.1786 414.51 84.1786V86.998C416.921 86.998 419.454 86.7144 422.108 86.1558L421.527 83.3969ZM414.51 84.1786C408.555 84.1786 403.24 83.3186 398.546 81.6235L397.589 84.2753C402.638 86.0988 408.285 86.998 414.51 86.998V84.1786ZM398.562 81.6295C393.842 79.8595 389.842 77.4463 386.539 74.402L384.628 76.4753C388.226 79.7915 392.549 82.3855 397.572 84.2693L398.562 81.6295ZM386.549 74.4121C383.244 71.3013 380.719 67.6441 378.968 63.4288L376.365 64.5103C378.268 69.0913 381.021 73.0802 384.617 76.4652L386.549 74.4121ZM378.968 63.4288C377.219 59.2175 376.336 54.5991 376.336 49.557H373.516C373.516 54.9352 374.46 59.9252 376.365 64.5103L378.968 63.4288ZM376.336 49.557C376.336 42.8583 377.331 37.1256 379.277 32.3247L376.665 31.2655C374.551 36.479 373.516 42.5876 373.516 49.557H376.336ZM379.274 32.3336C381.305 27.4182 384.007 23.3967 387.362 20.2355L385.428 18.1836C381.746 21.6535 378.832 26.0224 376.668 31.2566L379.274 32.3336ZM387.363 20.2349C390.807 16.9852 394.732 14.5859 399.145 13.0281L398.207 10.3695C393.419 12.0596 389.156 14.6674 385.428 18.1842L387.363 20.2349ZM399.139 13.0302C403.655 11.4595 408.37 10.6726 413.292 10.6726V7.85322C408.064 7.85322 403.035 8.69025 398.213 10.3674L399.139 13.0302ZM413.292 10.6726C417.991 10.6726 422.263 11.2021 426.117 12.2474L426.855 9.5263C422.725 8.4063 418.201 7.85322 413.292 7.85322V10.6726ZM426.139 12.253C430.045 13.246 433.306 14.4919 435.946 15.9731L437.326 13.5143C434.418 11.8829 430.912 10.5576 426.834 9.52062L426.139 12.253ZM435.305 14.2802L430.534 27.9823L433.197 28.9092L437.967 15.2072L435.305 14.2802ZM432.55 27.2135C431.227 26.4784 429.513 25.7697 427.44 25.0785L426.548 27.7531C428.534 28.4152 430.068 29.0598 431.181 29.678L432.55 27.2135ZM427.44 25.0785C425.352 24.3825 423.228 23.8255 421.07 23.4079L420.535 26.1759C422.572 26.5702 424.576 27.0959 426.548 27.7531L427.44 25.0785ZM421.113 23.4168C418.944 22.9271 416.976 22.6717 415.22 22.6717V25.4911C416.712 25.4911 418.466 25.7093 420.492 26.1669L421.113 23.4168ZM415.22 22.6717C411.046 22.6717 407.307 23.1931 404.025 24.2636L404.899 26.9441C407.841 25.9846 411.275 25.4911 415.22 25.4911V22.6717ZM404.025 24.2636C400.736 25.336 397.912 26.9575 395.581 29.1428L397.509 31.1996C399.509 29.325 401.962 27.9016 404.899 26.9441L404.025 24.2636ZM395.565 29.1582C393.295 31.3547 391.594 34.0838 390.446 37.3112L393.103 38.2557C394.121 35.3932 395.6 33.0475 397.525 31.1842L395.565 29.1582ZM390.45 37.3017C389.299 40.4676 388.741 44.122 388.741 48.2376H391.56C391.56 44.3687 392.085 41.0537 393.099 38.2652L390.45 37.3017ZM388.741 48.2376C388.741 51.9208 389.379 55.2936 390.682 58.3335L393.273 57.223C392.14 54.5791 391.56 51.5914 391.56 48.2376H388.741ZM390.687 58.3449C391.982 61.294 393.788 63.8271 396.106 65.9276L397.999 63.8385C395.986 62.0144 394.409 59.8109 393.268 57.2116L390.687 58.3449ZM396.122 65.9419C398.502 68.0333 401.271 69.612 404.413 70.6831L405.322 68.0146C402.51 67.0558 400.069 65.6573 397.983 63.8241L396.122 65.9419ZM404.422 70.6862C407.629 71.7552 411.131 72.281 414.916 72.281V69.4616C411.393 69.4616 408.196 68.9725 405.313 68.0115L404.422 70.6862ZM414.916 72.281C417.073 72.281 419.074 72.1419 420.915 71.8586L420.487 69.072C418.81 69.3301 416.954 69.4616 414.916 69.4616V72.281ZM420.967 71.8496C422.833 71.4907 424.472 70.9416 425.852 70.1751L424.482 67.7106C423.426 68.2974 422.087 68.7633 420.435 69.081L420.967 71.8496ZM426.577 68.9429V59.9097H423.757V68.9429H426.577ZM425.167 58.5H412.277V61.3194H425.167V58.5ZM413.687 59.9097V45.7002H410.867V59.9097H413.687ZM412.277 47.1098H440.087V44.2905H412.277V47.1098ZM438.677 45.7002V77.2656H441.497V45.7002H438.677ZM497.302 14.8452L496.501 16.0049L496.513 16.0128L497.302 14.8452ZM500.753 40.4223L499.62 39.5844L499.617 39.5887L500.753 40.4223ZM491.517 47.3241L492.025 48.6393L492.037 48.6345L491.517 47.3241ZM478.221 49.557L476.869 49.9557L477.167 50.9667H478.221V49.557ZM475.887 41.6403V40.2306H474.001L474.535 42.039L475.887 41.6403ZM492.228 44.1777L491.753 45.5053L491.759 45.5074L492.228 44.1777ZM503.595 51.4855L502.533 52.4121L502.538 52.4178L502.543 52.4234L503.595 51.4855ZM505.524 73.1042L504.275 72.4501L504.269 72.4616L505.524 73.1042ZM499.637 79.9045L500.441 81.0624L500.447 81.0579L499.637 79.9045ZM491.314 83.6599L491.642 85.0309L491.656 85.0275L491.67 85.0239L491.314 83.6599ZM456.805 84.7763H455.396V86.186H456.805V84.7763ZM456.805 10.0749V8.66518H455.396V10.0749H456.805ZM486.848 37.9864L485.752 37.1007L485.741 37.1137L485.731 37.1269L486.848 37.9864ZM486.341 26.2128L485.488 27.3351L485.498 27.3432L485.509 27.351L486.341 26.2128ZM471.522 24.2844V22.8747H470.113V24.2844H471.522ZM471.522 40.6253H470.113V42.035H471.522V40.6253ZM486.848 70.2623L487.263 71.6097L487.286 71.6025L487.309 71.5944L486.848 70.2623ZM491.01 67.5219L492.093 68.4244L492.105 68.41L492.116 68.3954L491.01 67.5219ZM490.705 57.8797L489.737 58.9046L489.753 58.9192L489.769 58.9333L490.705 57.8797ZM485.935 55.5453L485.593 56.9129L485.621 56.9199L485.649 56.9258L485.935 55.5453ZM471.522 54.8348V53.4252H470.113V54.8348H471.522ZM471.522 71.0743H470.113V72.484H471.522V71.0743ZM478.729 11.4845C486.332 11.4845 492.211 13.0398 496.501 16.0048L498.104 13.6856C493.191 10.2901 486.688 8.66518 478.729 8.66518V11.4845ZM496.513 16.0128C500.674 18.8282 502.795 23.0285 502.795 28.8517H505.614C505.614 22.2247 503.133 17.0873 498.092 13.6776L496.513 16.0128ZM502.795 28.8517C502.795 33.2099 501.709 36.7577 499.62 39.5844L501.887 41.2602C504.399 37.8618 505.614 33.6959 505.614 28.8517H502.795ZM499.617 39.5887C497.558 42.3952 494.706 44.5433 490.997 46.0137L492.037 48.6345C496.178 46.9924 499.482 44.5393 501.89 41.256L499.617 39.5887ZM491.01 46.009C487.345 47.4234 483.09 48.1474 478.221 48.1474V50.9667C483.366 50.9667 487.976 50.202 492.025 48.6392L491.01 46.009ZM479.573 49.1583L477.239 41.2416L474.535 42.039L476.869 49.9557L479.573 49.1583ZM475.887 43.05C481.918 43.05 487.199 43.8786 491.753 45.5053L492.702 42.8502C487.783 41.0936 482.171 40.2306 475.887 40.2306V43.05ZM491.759 45.5074C496.381 47.1348 499.949 49.4497 502.533 52.4121L504.658 50.5588C501.693 47.1608 497.682 44.6038 492.696 42.8481L491.759 45.5074ZM502.543 52.4234C505.074 55.2627 506.347 58.6786 506.347 62.7516H509.166C509.166 58.0282 507.665 53.9334 504.648 50.5475L502.543 52.4234ZM506.347 62.7516C506.347 66.6427 505.633 69.8566 504.275 72.4501L506.772 73.7583C508.391 70.6681 509.166 66.9802 509.166 62.7516H506.347ZM504.269 72.4616C502.95 75.036 501.139 77.126 498.826 78.7511L500.447 81.0579C503.142 79.1644 505.255 76.7209 506.778 73.7469L504.269 72.4616ZM498.833 78.7466C496.544 80.336 493.924 81.5222 490.958 82.2959L491.67 85.0239C494.929 84.1736 497.858 82.8562 500.441 81.0624L498.833 78.7466ZM490.986 82.2889C487.985 83.0066 484.881 83.3667 481.672 83.3667V86.186C485.094 86.186 488.418 85.8018 491.642 85.0309L490.986 82.2889ZM481.672 83.3667H456.805V86.186H481.672V83.3667ZM458.215 84.7763V10.0749H455.396V84.7763H458.215ZM456.805 11.4845H478.729V8.66518H456.805V11.4845ZM480.454 42.035C483.653 42.035 486.267 41.0545 487.966 38.8459L485.731 37.1269C484.723 38.4369 483.074 39.2157 480.454 39.2157V42.035ZM487.945 38.8722C489.566 36.8656 490.389 34.5579 490.389 31.9981H487.57C487.57 33.9042 486.973 35.5887 485.752 37.1007L487.945 38.8722ZM490.389 31.9981C490.389 29.069 489.363 26.6757 487.173 25.0747L485.509 27.351C486.837 28.3212 487.57 29.7848 487.57 31.9981H490.389ZM487.194 25.0905C485.181 23.5604 482.545 22.8747 479.439 22.8747V25.6941C482.153 25.6941 484.118 26.294 485.488 27.3351L487.194 25.0905ZM479.439 22.8747H471.522V25.6941H479.439V22.8747ZM470.113 24.2844V40.6253H472.932V24.2844H470.113ZM471.522 42.035H480.454V39.2157H471.522V42.035ZM480.961 72.484C483.243 72.484 485.348 72.1988 487.263 71.6097L486.434 68.915C484.83 69.4084 483.01 69.6646 480.961 69.6646V72.484ZM487.309 71.5944C489.268 70.9163 490.887 69.8716 492.093 68.4244L489.927 66.6195C489.103 67.6082 487.947 68.3904 486.387 68.9302L487.309 71.5944ZM492.116 68.3954C493.357 66.8231 493.942 64.9112 493.942 62.7516H491.122C491.122 64.3812 490.692 65.6495 489.903 66.6484L492.116 68.3954ZM493.942 62.7516C493.942 60.3232 493.251 58.2568 491.642 56.8261L489.769 58.9333C490.595 59.668 491.122 60.8494 491.122 62.7516H493.942ZM491.673 56.8549C490.231 55.4926 488.388 54.6134 486.22 54.1649L485.649 56.9258C487.406 57.2893 488.744 57.9663 489.737 58.9046L491.673 56.8549ZM486.277 54.1777C484.262 53.6742 482.151 53.4252 479.947 53.4252V56.2445C481.937 56.2445 483.818 56.4692 485.593 56.9129L486.277 54.1777ZM479.947 53.4252H471.522V56.2445H479.947V53.4252ZM470.113 54.8348V71.0743H472.932V54.8348H470.113ZM471.522 72.484H480.961V69.6646H471.522V72.484ZM520.896 32.9116L522.193 33.4646L522.193 33.4646L520.896 32.9116ZM529.016 20.732L528.01 19.7447L528.01 19.7449L529.016 20.732ZM541.196 12.3078L540.627 11.018L540.627 11.018L541.196 12.3078ZM570.731 12.3078L571.3 11.018L571.3 11.018L570.731 12.3078ZM582.911 20.732L581.905 21.7193L581.914 21.7288L581.924 21.7382L582.911 20.732ZM591.234 32.9116L589.937 33.4646L589.94 33.4726L589.944 33.4806L591.234 32.9116ZM591.234 62.3456L589.944 61.7766L589.94 61.7846L589.937 61.7926L591.234 62.3456ZM582.911 74.5252L583.898 75.5316L583.898 75.5314L582.911 74.5252ZM570.731 82.6449L571.284 83.9416L571.284 83.9416L570.731 82.6449ZM541.196 82.6449L541.749 81.3482L541.749 81.3482L541.196 82.6449ZM529.016 74.5252L528.01 75.5122L528.019 75.522L528.029 75.5316L529.016 74.5252ZM520.896 62.3456L522.193 61.7926L522.193 61.7926L520.896 62.3456ZM534.903 56.8648L533.592 57.3831L533.599 57.4017L533.607 57.4201L534.903 56.8648ZM539.876 64.477L538.849 65.4422L538.864 65.4582L538.88 65.4738L539.876 64.477ZM547.286 69.5519L546.719 70.8427L546.73 70.8475L547.286 69.5519ZM565.352 69.5519L564.785 68.261L564.773 68.2663L565.352 69.5519ZM572.558 64.477L573.587 65.4412L573.594 65.4333L573.601 65.4253L572.558 64.477ZM577.329 56.8648L578.635 57.3937L578.639 57.3831L577.329 56.8648ZM577.227 38.0879L575.916 38.6062L575.921 38.6193L575.927 38.6322L577.227 38.0879ZM572.355 30.4757L571.312 31.4239L571.327 31.4405L571.343 31.4565L572.355 30.4757ZM565.149 25.2993L564.582 26.5901L565.149 25.2993ZM539.775 30.4757L540.787 31.4565L540.795 31.4487L540.802 31.4408L539.775 30.4757ZM534.903 38.0879L536.214 38.6062L536.214 38.6062L534.903 38.0879ZM519.363 47.5271C519.363 42.5692 520.308 37.886 522.193 33.4646L519.6 32.3586C517.561 37.1396 516.543 42.2 516.543 47.5271H519.363ZM522.193 33.4646C524.088 29.0224 526.697 25.1104 530.023 21.7191L528.01 19.7449C524.434 23.3907 521.63 27.5984 519.6 32.3586L522.193 33.4646ZM530.022 21.7193C533.416 18.2608 537.327 15.5553 541.765 13.5975L540.627 11.018C535.862 13.1201 531.654 16.0308 528.01 19.7447L530.022 21.7193ZM541.765 13.5975C546.178 11.6506 550.922 10.6726 556.014 10.6726V7.85322C550.55 7.85322 545.416 8.90513 540.627 11.018L541.765 13.5975ZM556.014 10.6726C561.036 10.6726 565.747 11.6495 570.162 13.5975L571.3 11.018C566.513 8.90616 561.413 7.85322 556.014 7.85322V10.6726ZM570.162 13.5975C574.6 15.5553 578.511 18.2608 581.905 21.7193L583.917 19.7447C580.273 16.0308 576.065 13.1201 571.3 11.018L570.162 13.5975ZM581.924 21.7382C585.379 25.128 588.047 29.0341 589.937 33.4646L592.53 32.3586C590.495 27.5868 587.616 23.3731 583.898 19.7258L581.924 21.7382ZM589.944 33.4806C591.893 37.8984 592.869 42.576 592.869 47.5271H595.688C595.688 42.1932 594.634 37.1271 592.523 32.3426L589.944 33.4806ZM592.869 47.5271C592.869 52.6189 591.891 57.3635 589.944 61.7766L592.523 62.9146C594.636 58.1253 595.688 52.991 595.688 47.5271H592.869ZM589.937 61.7926C588.047 66.2231 585.379 70.1292 581.924 73.5189L583.898 75.5314C587.616 71.8841 590.495 67.6704 592.53 62.8986L589.937 61.7926ZM581.924 73.5188C578.532 76.8448 574.62 79.4538 570.178 81.3482L571.284 83.9416C576.044 81.9115 580.252 79.1073 583.898 75.5316L581.924 73.5188ZM570.178 81.3482C565.759 83.2328 561.042 84.1786 556.014 84.1786V86.998C561.406 86.998 566.501 85.9815 571.284 83.9416L570.178 81.3482ZM556.014 84.1786C550.916 84.1786 546.166 83.2319 541.749 81.3482L540.643 83.9416C545.428 85.9825 550.557 86.998 556.014 86.998V84.1786ZM541.749 81.3482C537.307 79.4538 533.395 76.8448 530.003 73.5188L528.029 75.5316C531.675 79.1073 535.883 81.9115 540.643 83.9416L541.749 81.3482ZM530.023 73.5381C526.697 70.1468 524.088 66.2347 522.193 61.7926L519.6 62.8986C521.63 67.6588 524.434 71.8664 528.01 75.5122L530.023 73.5381ZM522.193 61.7926C520.309 57.3758 519.363 52.6255 519.363 47.5271H516.543C516.543 52.9843 517.559 58.113 519.6 62.8986L522.193 61.7926ZM531.768 47.5271C531.768 51.0094 532.373 54.2988 533.592 57.3831L536.214 56.3465C535.133 53.6116 534.587 50.6759 534.587 47.5271H531.768ZM533.607 57.4201C534.889 60.4118 536.638 63.0882 538.849 65.4422L540.904 63.5119C538.92 61.4 537.352 59.0016 536.199 56.3095L533.607 57.4201ZM538.88 65.4738C541.167 67.7616 543.782 69.5535 546.719 70.8426L547.852 68.2611C545.24 67.1143 542.916 65.523 540.873 63.4802L538.88 65.4738ZM546.73 70.8475C549.76 72.146 553.029 72.7885 556.522 72.7885V69.9691C553.383 69.9691 550.495 69.3936 547.841 68.2562L546.73 70.8475ZM556.522 72.7885C559.887 72.7885 563.029 72.1429 565.93 70.8374L564.773 68.2663C562.262 69.3967 559.517 69.9691 556.522 69.9691V72.7885ZM565.919 70.8426C568.864 69.5497 571.424 67.7483 573.587 65.4412L571.53 63.5129C569.633 65.5363 567.389 67.1181 564.785 68.2611L565.919 70.8426ZM573.601 65.4253C575.745 63.0672 577.424 60.3873 578.635 57.3937L576.022 56.3359C574.933 59.026 573.431 61.421 571.515 63.5288L573.601 65.4253ZM578.639 57.3831C579.859 54.2988 580.464 51.0094 580.464 47.5271H577.644C577.644 50.6759 577.099 53.6116 576.018 56.3465L578.639 57.3831ZM580.464 47.5271C580.464 43.9707 579.823 40.6378 578.527 37.5436L575.927 38.6322C577.067 41.3572 577.644 44.317 577.644 47.5271H580.464ZM578.538 37.5696C577.322 34.4944 575.599 31.7982 573.368 29.4948L571.343 31.4565C573.307 33.4837 574.831 35.8623 575.916 38.6062L578.538 37.5696ZM573.398 29.5274C571.235 27.1476 568.67 25.3057 565.716 24.0086L564.582 26.5901C567.176 27.7289 569.416 29.3379 571.312 31.4239L573.398 29.5274ZM565.716 24.0086C562.75 22.7067 559.544 22.0627 556.116 22.0627V24.8821C559.183 24.8821 561.999 25.4561 564.582 26.5901L565.716 24.0086ZM556.116 22.0627C552.687 22.0627 549.481 22.7067 546.516 24.0086L547.649 26.5901C550.232 25.4561 553.049 24.8821 556.116 24.8821V22.0627ZM546.516 24.0086C543.566 25.3038 540.974 27.1407 538.747 29.5105L540.802 31.4408C542.771 29.3448 545.051 27.7308 547.649 26.5901L546.516 24.0086ZM538.762 29.4948C536.531 31.7982 534.808 34.4944 533.592 37.5696L536.214 38.6062C537.299 35.8623 538.823 33.4837 540.787 31.4565L538.762 29.4948ZM533.592 37.5696C532.371 40.6572 531.768 43.981 531.768 47.5271H534.587C534.587 44.3068 535.134 41.3378 536.214 38.6062L533.592 37.5696ZM599.293 10.0749V8.66518H596.697L598.111 10.8427L599.293 10.0749ZM618.07 10.0749L619.251 9.3048L618.833 8.66518H618.07V10.0749ZM666.788 84.7763V86.186H669.391L667.969 84.0063L666.788 84.7763ZM647.808 84.7763L646.626 85.5441L647.043 86.186H647.808V84.7763ZM598.278 84.7763L597.089 84.0199L595.711 86.186H598.278V84.7763ZM624.87 42.9597L626.148 42.3646L625.062 40.0318L623.681 42.2033L624.87 42.9597ZM631.772 57.7782L633 58.4707L633.356 57.8397L633.05 57.1831L631.772 57.7782ZM616.547 84.7763V86.186H617.371L617.775 85.4688L616.547 84.7763ZM632.787 37.4789L631.558 36.7874L631.156 37.5015L631.578 38.2042L632.787 37.4789ZM648.214 10.0749V8.66518H647.39L646.986 9.38332L648.214 10.0749ZM666.078 10.0749L667.265 10.8352L668.655 8.66518H666.078V10.0749ZM640.399 50.166L639.19 50.8913L640.36 52.8407L641.586 50.9263L640.399 50.166ZM599.293 11.4845H618.07V8.66518H599.293V11.4845ZM616.889 10.8449L665.607 85.5464L667.969 84.0063L619.251 9.3048L616.889 10.8449ZM666.788 83.3667H647.808V86.186H666.788V83.3667ZM648.991 84.0085L600.475 9.30705L598.111 10.8427L646.626 85.5441L648.991 84.0085ZM599.468 85.5328L626.06 43.7162L623.681 42.2033L597.089 84.0199L599.468 85.5328ZM623.592 43.5549L630.494 58.3734L633.05 57.1831L626.148 42.3646L623.592 43.5549ZM630.544 57.0858L615.32 84.0839L617.775 85.4688L633 58.4707L630.544 57.0858ZM616.547 83.3667H598.278V86.186H616.547V83.3667ZM634.015 38.1705L649.443 10.7664L646.986 9.38332L631.558 36.7874L634.015 38.1705ZM648.214 11.4845H666.078V8.66518H648.214V11.4845ZM664.891 9.31454L639.212 49.4057L641.586 50.9263L667.265 10.8352L664.891 9.31454ZM641.608 49.4407L633.996 36.7537L631.578 38.2042L639.19 50.8913L641.608 49.4407Z" fill="black"/>
</g>
<defs>
<clipPath id="clip0_1_83">
<rect width="699.213" height="151.181" fill="white"/>
</clipPath>
</defs>
</svg>
