<svg viewBox="0 0 553 707" fill="none" xmlns="http://www.w3.org/2000/svg">
<path d="M40.5589 167.688C42.5543 103.326 121.485 75.9247 160.701 70.2693C220.194 51.6611 220.412 19.7035 248.001 8.97202C302.876 -12.3725 383.525 7.87737 461.264 33.053C539.003 58.2287 545.655 165.499 545.655 182.465C545.655 199.431 525.285 341.729 545.655 388.796C566.025 435.864 539.003 553.532 525.285 573.235C491.612 621.596 429.252 694.152 405.142 700.755C343.2 717.722 177.33 704.039 89.1977 610.451C1.06578 516.863 -5.16997 444.073 2.31293 333.519C9.79583 222.965 38.0646 248.141 40.5589 167.688Z" fill="url(#paint0_linear_1_237)"/>
<defs>
<linearGradient id="paint0_linear_1_237" x1="293.582" y1="20.8482" x2="293.119" y2="1290.19" gradientUnits="userSpaceOnUse">
<stop stop-color="#FF8000"/>
<stop offset="1" stop-color="white"/>
</linearGradient>
</defs>
</svg>
