<svg width="64" height="56" viewBox="0 0 64 56" fill="none" xmlns="http://www.w3.org/2000/svg">
<path fill-rule="evenodd" clip-rule="evenodd" d="M60.4678 22.1264L49.7776 3.54023L39.0875 22.1264L60.4678 22.1264ZM52.832 1.77011C51.4745 -0.590039 48.0808 -0.590037 46.7233 1.77012L36.0332 20.3563C34.6757 22.7165 36.3726 25.6667 39.0875 25.6667H60.4678C63.1827 25.6667 64.8796 22.7165 63.5221 20.3563L52.832 1.77011Z" fill="#FF8000"/>
<path fill-rule="evenodd" clip-rule="evenodd" d="M14.2222 24.5C20.1133 24.5 24.8889 19.799 24.8889 14C24.8889 8.20101 20.1133 3.5 14.2222 3.5C8.33119 3.5 3.55556 8.20101 3.55556 14C3.55556 19.799 8.33119 24.5 14.2222 24.5ZM14.2222 28C22.0769 28 28.4444 21.732 28.4444 14C28.4444 6.26802 22.0769 0 14.2222 0C6.36751 0 0 6.26802 0 14C0 21.732 6.36751 28 14.2222 28Z" fill="#47C7FC"/>
<path fill-rule="evenodd" clip-rule="evenodd" d="M15.5569 38.5C15.7861 39.5918 16.1224 40.6625 16.563 41.697C17.4672 43.8202 18.7924 45.7493 20.4631 47.3744C22.1338 48.9994 24.1172 50.2884 26.3001 51.1679C28.4829 52.0474 30.8225 52.5 33.1852 52.5C35.5479 52.5 37.8875 52.0473 40.0704 51.1679C42.2532 50.2884 44.2366 48.9994 45.9073 47.3744C47.578 45.7493 48.9033 43.8202 49.8075 41.697C50.248 40.6625 50.5844 39.5918 50.8135 38.5L15.5569 38.5ZM15.1885 38.5003C15.1885 38.5003 15.1867 38.5004 15.1885 38.5003V38.5003ZM11.8942 38.4838C11.5646 36.5776 13.2061 35 15.1934 35L51.177 35C53.1643 35 54.8059 36.5776 54.4762 38.4838C54.2067 40.0421 53.7566 41.5696 53.1319 43.0363C52.0469 45.5842 50.4566 47.8992 48.4518 49.8492C46.4469 51.7993 44.0669 53.3461 41.4474 54.4015C38.828 55.4568 36.0205 56 33.1852 56C30.35 56 27.5425 55.4568 24.923 54.4015C22.3036 53.3461 19.9235 51.7993 17.9187 49.8492C15.9139 47.8992 14.3235 45.5842 13.2385 43.0364C12.6139 41.5696 12.1638 40.0421 11.8942 38.4838Z" fill="black"/>
</svg>
