<svg width="614" height="114" viewBox="0 0 614 114" fill="none" xmlns="http://www.w3.org/2000/svg">
<path d="M605.434 0.658203H119.176C118.478 0.658203 117.805 0.934806 117.318 1.43533L99.5265 16.3982C98.5381 17.3861 97.1938 17.9393 95.7969 17.9393H71.5874C70.1905 17.9393 68.8463 17.3861 67.8578 16.3982L50.0665 1.43533C49.5657 0.934806 48.9067 0.658203 48.2083 0.658203H8.56646C4.20427 0.658203 0.65918 4.20136 0.65918 8.56115V88.8419C0.65918 93.2017 4.20427 96.7449 8.56646 96.7449H48.8804C49.5789 96.7449 50.251 97.0215 50.7386 97.522L67.8447 111.8C68.8331 112.788 70.1773 113.341 71.5743 113.341H95.7837C97.1807 113.341 98.5249 112.788 99.5133 111.8L116.633 97.522C117.133 97.0215 117.792 96.7449 118.491 96.7449H605.434C609.796 96.7449 613.341 93.2017 613.341 88.8419V8.56115C613.341 4.20136 609.796 0.658203 605.434 0.658203ZM585.692 74.2873C585.692 77.1982 583.333 79.556 580.421 79.556H172.875C169.963 79.556 167.604 77.1982 167.604 74.2873V23.6294C167.604 20.7185 169.963 18.3608 172.875 18.3608H580.421C583.333 18.3608 585.692 20.7185 585.692 23.6294V74.2873Z" fill="#53565A" fill-opacity="0.21" stroke="#53565A" stroke-miterlimit="10" stroke-dasharray="5 5"/>
</svg>
