<svg width="28" height="14" viewBox="0 0 28 14" fill="none" xmlns="http://www.w3.org/2000/svg">
<path fill-rule="evenodd" clip-rule="evenodd" d="M0.0277986 2.32256C-0.188562 1.05176 0.888713 -4.90879e-07 2.19289 -6.04894e-07L25.8071 -2.66931e-06C27.1113 -2.78333e-06 28.1886 1.05175 27.9722 2.32256C27.7953 3.36142 27.4999 4.3797 27.09 5.35757C26.378 7.05612 25.3343 8.59947 24.0187 9.89949C22.703 11.1995 21.1411 12.2307 19.4221 12.9343C17.7031 13.6379 15.8606 14 14 14C12.1394 14 10.2969 13.6379 8.57794 12.9343C6.85893 12.2307 5.29701 11.1995 3.98134 9.8995C2.66567 8.59948 1.62202 7.05613 0.909984 5.35757C0.500064 4.3797 0.204671 3.36143 0.0277986 2.32256Z" fill="#53565A"/>
</svg>
