<svg width="25" height="21" viewBox="0 0 25 21" fill="none" xmlns="http://www.w3.org/2000/svg">
<path d="M12.4999 4.06859L3.51765 18.8957C2.95102 19.8308 3.65931 20.9998 4.79225 20.9998H22.7564C23.8894 20.9998 24.5977 19.8308 24.031 18.8957L15.0491 4.06859C14.4828 3.13343 13.0662 3.13343 12.4999 4.06859Z" fill="#B2E6FC"/>
<path d="M5.36053 10.7291C5.22391 10.7291 5.08527 10.6959 4.95838 10.6261C4.57301 10.414 4.44109 9.94434 4.66365 9.57738L9.80802 1.0852C10.2196 0.405669 10.9571 0 11.7802 0C12.6033 0 13.3408 0.405669 13.7527 1.0852L14.9977 3.14042C15.2203 3.5077 15.0883 3.97735 14.703 4.18915C14.3176 4.40126 13.8248 4.27521 13.6026 3.90825L12.3575 1.85303C12.184 1.56637 11.8963 1.53566 11.7805 1.53566C11.6647 1.53566 11.377 1.56669 11.2035 1.85303L6.05909 10.3449C5.91005 10.5912 5.63915 10.7288 5.36053 10.7291Z" fill="#18193F"/>
<path d="M20.6678 19.0129H2.89296C2.06952 19.0129 1.33236 18.6072 0.920473 17.9277C0.508588 17.2482 0.508923 16.4365 0.920473 15.757L2.8698 12.5392C3.09236 12.1719 3.58481 12.0461 3.97017 12.2583C4.35554 12.4704 4.48746 12.94 4.2649 13.307L2.31592 16.5248C2.14237 16.8115 2.25818 17.0642 2.31592 17.1599C2.37365 17.2552 2.54586 17.4773 2.89296 17.4773H20.6678C21.0149 17.4773 21.1871 17.2552 21.2449 17.1599C21.3026 17.0645 21.4184 16.8115 21.2449 16.5248L15.2958 6.70462C15.0733 6.33734 15.2052 5.86768 15.5906 5.65589C15.9759 5.44378 16.4687 5.56983 16.691 5.93679L22.64 15.757C23.0515 16.4365 23.0515 17.2482 22.64 17.9277C22.2284 18.6072 21.4913 19.0129 20.6678 19.0129Z" fill="#18193F"/>
<path d="M11.5788 12.4492C11.134 12.4492 10.7731 12.1053 10.7731 11.6814V6.0206C10.7731 5.5967 11.134 5.25277 11.5788 5.25277C12.0236 5.25277 12.3844 5.5967 12.3844 6.0206V11.6814C12.3844 12.1053 12.0239 12.4492 11.5788 12.4492Z" fill="#18193F"/>
<path d="M17.2385 3.55566C17.0743 3.55566 16.9085 3.50799 16.7655 3.40881C16.4056 3.15959 16.3257 2.67938 16.5876 2.33641L17.9491 0.55121C18.2106 0.208246 18.7145 0.132103 19.0743 0.381648C19.4342 0.630872 19.5141 1.11108 19.2522 1.45405L17.8907 3.23925C17.7333 3.44592 17.4875 3.55566 17.2385 3.55566Z" fill="#18193F"/>
<path d="M18.9654 6.14471C18.6872 6.14471 18.4163 6.00714 18.2669 5.7608C18.0443 5.39352 18.1762 4.92387 18.5616 4.71207L20.567 3.60864C20.9524 3.39653 21.4451 3.52258 21.6674 3.88954C21.8896 4.25649 21.758 4.72647 21.3726 4.93826L19.3673 6.0417C19.2407 6.11144 19.1021 6.14471 18.9654 6.14471Z" fill="#18193F"/>
<path d="M22.4171 8.71654H20.1015C19.6567 8.71654 19.2959 8.37262 19.2959 7.94871C19.2959 7.52481 19.6567 7.18089 20.1015 7.18089H22.4171C22.8618 7.18089 23.2227 7.52481 23.2227 7.94871C23.2227 8.37262 22.8618 8.71654 22.4171 8.71654Z" fill="#18193F"/>
<path d="M3.1212 8.71654H0.805644C0.360861 8.71654 0 8.37262 0 7.94871C0 7.52481 0.360861 7.18089 0.805644 7.18089H3.1212C3.56598 7.18089 3.92684 7.52481 3.92684 7.94871C3.92684 8.37262 3.56632 8.71654 3.1212 8.71654Z" fill="#18193F"/>
<path d="M4.13972 6.11173C4.00309 6.11173 3.86446 6.07846 3.73757 6.00871L1.73218 4.90528C1.34682 4.69317 1.21489 4.22351 1.43745 3.85655C1.66001 3.48928 2.1528 3.36354 2.53783 3.57566L4.54321 4.67909C4.92858 4.8912 5.0605 5.36086 4.83794 5.72782C4.6889 5.97384 4.418 6.11173 4.13972 6.11173Z" fill="#18193F"/>
<path d="M5.86944 3.55433C5.62104 3.55433 5.37632 3.44523 5.21855 3.23984L3.85164 1.45848C3.58913 1.11615 3.66701 0.635939 4.0262 0.385435C4.38538 0.13525 4.88958 0.209794 5.15208 0.551797L6.51899 2.33316C6.7815 2.67548 6.70362 3.1557 6.34444 3.4062C6.2011 3.50634 6.0346 3.55433 5.86944 3.55433Z" fill="#18193F"/>
<path d="M11.5787 16.1634C12.2193 16.1634 12.7385 15.6685 12.7385 15.058C12.7385 14.4475 12.2193 13.9527 11.5787 13.9527C10.9382 13.9527 10.419 14.4475 10.419 15.058C10.419 15.6685 10.9382 16.1634 11.5787 16.1634Z" fill="#18193F"/>
</svg>
