<svg width="671" height="244" viewBox="0 0 671 244" fill="none" xmlns="http://www.w3.org/2000/svg">
<path d="M114.171 170.88C117.542 170.88 120.134 171.776 121.947 173.568C123.782 175.339 124.699 177.909 124.699 181.28C124.699 184.757 123.782 187.413 121.947 189.248C120.134 191.083 117.542 192 114.171 192H107.515V170.88H114.171ZM114.299 190.528C117.115 190.528 119.27 189.728 120.763 188.128C122.278 186.528 123.035 184.245 123.035 181.28C123.035 178.421 122.278 176.224 120.763 174.688C119.27 173.131 117.115 172.352 114.299 172.352H109.115V190.528H114.299ZM129.089 192V176H130.433L130.625 179.36C131.031 178.229 131.681 177.333 132.577 176.672C133.473 176.011 134.551 175.68 135.809 175.68C136.236 175.68 136.62 175.723 136.961 175.808C137.303 175.893 137.58 176.032 137.793 176.224L137.441 177.632C137.207 177.483 136.951 177.365 136.673 177.28C136.396 177.195 135.98 177.152 135.425 177.152C134.615 177.152 133.847 177.408 133.121 177.92C132.396 178.411 131.809 179.104 131.361 180C130.913 180.875 130.689 181.888 130.689 183.04V192H129.089ZM150.217 181.472C150.217 180.085 149.844 179.008 149.097 178.24C148.35 177.472 147.284 177.088 145.897 177.088C144.681 177.088 143.636 177.355 142.761 177.888C141.886 178.4 141.236 179.264 140.809 180.48L139.497 179.648C139.966 178.389 140.745 177.419 141.833 176.736C142.942 176.032 144.308 175.68 145.929 175.68C147.102 175.68 148.126 175.893 149.001 176.32C149.897 176.725 150.59 177.333 151.081 178.144C151.572 178.955 151.817 179.968 151.817 181.184V189.184C151.817 190.315 152.329 190.88 153.353 190.88C153.801 190.88 154.185 190.805 154.505 190.656L154.409 191.936C154.046 192.128 153.577 192.224 153.001 192.224C152.51 192.224 152.052 192.128 151.625 191.936C151.198 191.744 150.846 191.424 150.569 190.976C150.313 190.528 150.185 189.92 150.185 189.152V188.288L150.633 188.256C150.441 189.173 150.014 189.941 149.353 190.56C148.713 191.157 147.966 191.605 147.113 191.904C146.26 192.181 145.406 192.32 144.553 192.32C143.55 192.32 142.654 192.16 141.865 191.84C141.076 191.52 140.457 191.061 140.009 190.464C139.561 189.845 139.337 189.088 139.337 188.192C139.337 186.997 139.732 186.037 140.521 185.312C141.332 184.565 142.462 184.053 143.913 183.776L150.537 182.464V183.808L144.713 184.96C143.454 185.216 142.516 185.589 141.897 186.08C141.278 186.571 140.969 187.243 140.969 188.096C140.969 188.971 141.3 189.664 141.961 190.176C142.622 190.667 143.561 190.912 144.777 190.912C145.396 190.912 146.025 190.827 146.665 190.656C147.305 190.485 147.892 190.219 148.425 189.856C148.98 189.472 149.417 189.003 149.737 188.448C150.057 187.872 150.217 187.179 150.217 186.368V181.472ZM170.696 173.056L171.08 174.464C171.059 174.464 171.037 174.464 171.016 174.464C170.995 174.464 170.963 174.464 170.92 174.464C169.875 174.464 169.064 174.741 168.488 175.296C167.933 175.829 167.656 176.587 167.656 177.568L166.632 177.056C166.632 176.245 166.803 175.541 167.144 174.944C167.485 174.347 167.955 173.888 168.552 173.568C169.149 173.227 169.821 173.056 170.568 173.056C170.611 173.056 170.632 173.056 170.632 173.056C170.653 173.056 170.675 173.056 170.696 173.056ZM165.64 190.368C167.219 190.368 168.456 190.699 169.352 191.36C170.248 192.021 170.696 192.907 170.696 194.016C170.696 194.997 170.365 195.851 169.704 196.576C169.064 197.301 168.179 197.867 167.048 198.272C165.917 198.677 164.627 198.88 163.176 198.88C160.765 198.88 158.92 198.464 157.64 197.632C156.36 196.821 155.72 195.797 155.72 194.56C155.72 193.664 156.04 192.885 156.68 192.224C157.341 191.563 158.301 191.168 159.56 191.04L159.432 191.328C158.749 191.136 158.141 190.816 157.608 190.368C157.096 189.92 156.84 189.28 156.84 188.448C156.84 187.552 157.171 186.827 157.832 186.272C158.515 185.696 159.411 185.365 160.52 185.28L162.216 185.856H161.544C160.563 185.92 159.773 186.165 159.176 186.592C158.6 186.997 158.312 187.531 158.312 188.192C158.312 188.917 158.589 189.461 159.144 189.824C159.72 190.187 160.445 190.368 161.32 190.368H165.64ZM163.176 197.536C164.435 197.536 165.512 197.387 166.408 197.088C167.304 196.789 167.987 196.384 168.456 195.872C168.947 195.381 169.192 194.827 169.192 194.208C169.192 193.461 168.861 192.864 168.2 192.416C167.56 191.968 166.579 191.744 165.256 191.744H160.712C159.709 191.744 158.877 191.979 158.216 192.448C157.555 192.917 157.224 193.547 157.224 194.336C157.224 195.296 157.747 196.064 158.792 196.64C159.859 197.237 161.32 197.536 163.176 197.536ZM162.952 175.68C164.211 175.68 165.32 175.904 166.28 176.352C167.261 176.779 168.019 177.387 168.552 178.176C169.085 178.944 169.352 179.851 169.352 180.896C169.352 181.92 169.085 182.837 168.552 183.648C168.019 184.437 167.261 185.056 166.28 185.504C165.32 185.931 164.211 186.144 162.952 186.144C160.925 186.144 159.336 185.664 158.184 184.704C157.053 183.723 156.488 182.453 156.488 180.896C156.488 179.851 156.755 178.944 157.288 178.176C157.843 177.387 158.6 176.779 159.56 176.352C160.541 175.904 161.672 175.68 162.952 175.68ZM162.952 176.992C161.544 176.992 160.392 177.355 159.496 178.08C158.6 178.784 158.152 179.723 158.152 180.896C158.152 182.069 158.6 183.019 159.496 183.744C160.392 184.469 161.544 184.832 162.952 184.832C164.36 184.832 165.501 184.469 166.376 183.744C167.272 183.019 167.72 182.069 167.72 180.896C167.72 179.723 167.272 178.784 166.376 178.08C165.501 177.355 164.36 176.992 162.952 176.992ZM190.764 192.32C189.783 192.32 188.865 192.139 188.012 191.776C187.18 191.413 186.465 190.891 185.868 190.208C185.292 189.525 184.865 188.725 184.588 187.808L184.812 187.552L184.684 192H183.244V168.64H184.844V180.288L184.652 180C185.079 178.677 185.836 177.632 186.924 176.864C188.033 176.075 189.313 175.68 190.764 175.68C192.172 175.68 193.42 176.011 194.508 176.672C195.596 177.333 196.46 178.283 197.1 179.52C197.74 180.757 198.06 182.251 198.06 184C198.06 185.728 197.74 187.221 197.1 188.48C196.46 189.717 195.585 190.667 194.476 191.328C193.388 191.989 192.151 192.32 190.764 192.32ZM190.572 190.912C192.385 190.912 193.815 190.293 194.86 189.056C195.927 187.819 196.46 186.133 196.46 184C196.46 181.867 195.937 180.181 194.892 178.944C193.847 177.707 192.417 177.088 190.604 177.088C189.495 177.088 188.503 177.376 187.628 177.952C186.753 178.507 186.071 179.307 185.58 180.352C185.089 181.397 184.844 182.624 184.844 184.032C184.844 185.44 185.089 186.667 185.58 187.712C186.071 188.736 186.743 189.525 187.596 190.08C188.471 190.635 189.463 190.912 190.572 190.912ZM203.801 168.64V188.224C203.801 189.205 203.972 189.899 204.313 190.304C204.655 190.709 205.188 190.912 205.913 190.912C206.361 190.912 206.713 190.88 206.969 190.816C207.247 190.752 207.567 190.645 207.929 190.496L207.705 191.904C207.428 192.032 207.108 192.128 206.745 192.192C206.404 192.277 206.02 192.32 205.593 192.32C204.463 192.32 203.609 192 203.033 191.36C202.479 190.699 202.201 189.675 202.201 188.288V168.64H203.801ZM217.162 175.68C218.655 175.68 219.967 176.011 221.098 176.672C222.25 177.333 223.146 178.293 223.786 179.552C224.447 180.789 224.778 182.272 224.778 184C224.778 185.728 224.447 187.221 223.786 188.48C223.146 189.717 222.25 190.667 221.098 191.328C219.967 191.989 218.655 192.32 217.162 192.32C215.668 192.32 214.346 191.989 213.194 191.328C212.063 190.667 211.167 189.717 210.506 188.48C209.866 187.221 209.546 185.728 209.546 184C209.546 182.272 209.866 180.789 210.506 179.552C211.167 178.293 212.063 177.333 213.194 176.672C214.346 176.011 215.668 175.68 217.162 175.68ZM217.162 177.056C215.946 177.056 214.89 177.333 213.994 177.888C213.098 178.443 212.394 179.243 211.882 180.288C211.391 181.312 211.146 182.549 211.146 184C211.146 185.429 211.391 186.667 211.882 187.712C212.394 188.757 213.098 189.557 213.994 190.112C214.89 190.667 215.946 190.944 217.162 190.944C218.378 190.944 219.434 190.667 220.33 190.112C221.226 189.557 221.919 188.757 222.41 187.712C222.922 186.667 223.178 185.429 223.178 184C223.178 182.549 222.922 181.312 222.41 180.288C221.919 179.243 221.226 178.443 220.33 177.888C219.434 177.333 218.378 177.056 217.162 177.056ZM235.464 175.68C236.552 175.68 237.523 175.851 238.376 176.192C239.23 176.533 239.955 177.024 240.552 177.664C241.15 178.304 241.608 179.083 241.928 180L240.424 180.704C240.083 179.552 239.486 178.667 238.632 178.048C237.8 177.408 236.734 177.088 235.432 177.088C234.259 177.088 233.224 177.365 232.328 177.92C231.432 178.453 230.739 179.243 230.248 180.288C229.758 181.312 229.512 182.549 229.512 184C229.512 185.429 229.758 186.667 230.248 187.712C230.739 188.757 231.422 189.557 232.296 190.112C233.171 190.645 234.206 190.912 235.4 190.912C236.296 190.912 237.107 190.763 237.832 190.464C238.579 190.165 239.187 189.728 239.656 189.152C240.147 188.576 240.467 187.893 240.616 187.104L242.088 187.616C241.811 188.597 241.352 189.44 240.712 190.144C240.094 190.848 239.336 191.392 238.44 191.776C237.544 192.139 236.542 192.32 235.432 192.32C233.982 192.32 232.68 191.989 231.528 191.328C230.398 190.667 229.512 189.717 228.872 188.48C228.232 187.221 227.912 185.728 227.912 184C227.912 182.272 228.232 180.789 228.872 179.552C229.534 178.293 230.43 177.333 231.56 176.672C232.712 176.011 234.014 175.68 235.464 175.68ZM259.207 176L252.167 182.784L251.783 183.168L246.823 187.968V185.92L257.127 176H259.207ZM247.623 168.64V192H246.023V168.64H247.623ZM252.263 181.952L259.463 192H257.511L250.951 182.88L252.263 181.952ZM267.611 192.32C265.989 192.32 264.549 191.989 263.291 191.328C262.053 190.667 261.179 189.717 260.667 188.48L262.043 187.552C262.427 188.619 263.109 189.451 264.091 190.048C265.093 190.624 266.309 190.912 267.739 190.912C269.147 190.912 270.245 190.635 271.035 190.08C271.845 189.525 272.251 188.789 272.251 187.872C272.251 187.253 272.048 186.72 271.643 186.272C271.259 185.803 270.523 185.451 269.435 185.216L265.691 184.416C264.155 184.096 263.056 183.584 262.395 182.88C261.755 182.155 261.435 181.28 261.435 180.256C261.435 179.403 261.691 178.635 262.203 177.952C262.715 177.269 263.419 176.725 264.315 176.32C265.232 175.893 266.299 175.68 267.515 175.68C269.115 175.68 270.437 176 271.483 176.64C272.528 177.259 273.264 178.197 273.691 179.456L272.347 180.32C272.027 179.189 271.429 178.368 270.555 177.856C269.701 177.344 268.688 177.088 267.515 177.088C266.619 177.088 265.829 177.227 265.147 177.504C264.485 177.76 263.963 178.123 263.579 178.592C263.216 179.04 263.035 179.563 263.035 180.16C263.035 180.779 263.248 181.344 263.675 181.856C264.101 182.347 264.859 182.709 265.947 182.944L269.787 183.776C271.301 184.096 272.357 184.587 272.955 185.248C273.552 185.888 273.851 186.688 273.851 187.648C273.851 188.608 273.595 189.44 273.083 190.144C272.571 190.848 271.845 191.392 270.907 191.776C269.968 192.139 268.869 192.32 267.611 192.32ZM292.917 168.48C293.493 168.48 294.005 168.555 294.453 168.704C294.901 168.853 295.253 169.067 295.509 169.344L295.061 170.624C294.784 170.368 294.485 170.187 294.165 170.08C293.845 169.973 293.472 169.92 293.045 169.92C292 169.92 291.189 170.219 290.613 170.816C290.037 171.413 289.749 172.299 289.749 173.472V176V176.576V192H288.149V173.312C288.149 172.587 288.245 171.925 288.437 171.328C288.65 170.731 288.96 170.229 289.365 169.824C289.77 169.397 290.272 169.067 290.869 168.832C291.466 168.597 292.149 168.48 292.917 168.48ZM295.381 176V177.376H284.949V176H295.381ZM298.209 192V176H299.553L299.745 179.36C300.15 178.229 300.801 177.333 301.697 176.672C302.593 176.011 303.67 175.68 304.929 175.68C305.356 175.68 305.74 175.723 306.081 175.808C306.422 175.893 306.7 176.032 306.913 176.224L306.561 177.632C306.326 177.483 306.07 177.365 305.793 177.28C305.516 177.195 305.1 177.152 304.545 177.152C303.734 177.152 302.966 177.408 302.241 177.92C301.516 178.411 300.929 179.104 300.481 180C300.033 180.875 299.809 181.888 299.809 183.04V192H298.209ZM315.729 175.68C317.222 175.68 318.534 176.011 319.665 176.672C320.817 177.333 321.713 178.293 322.353 179.552C323.014 180.789 323.345 182.272 323.345 184C323.345 185.728 323.014 187.221 322.353 188.48C321.713 189.717 320.817 190.667 319.665 191.328C318.534 191.989 317.222 192.32 315.729 192.32C314.236 192.32 312.913 191.989 311.761 191.328C310.63 190.667 309.734 189.717 309.073 188.48C308.433 187.221 308.113 185.728 308.113 184C308.113 182.272 308.433 180.789 309.073 179.552C309.734 178.293 310.63 177.333 311.761 176.672C312.913 176.011 314.236 175.68 315.729 175.68ZM315.729 177.056C314.513 177.056 313.457 177.333 312.561 177.888C311.665 178.443 310.961 179.243 310.449 180.288C309.958 181.312 309.713 182.549 309.713 184C309.713 185.429 309.958 186.667 310.449 187.712C310.961 188.757 311.665 189.557 312.561 190.112C313.457 190.667 314.513 190.944 315.729 190.944C316.945 190.944 318.001 190.667 318.897 190.112C319.793 189.557 320.486 188.757 320.977 187.712C321.489 186.667 321.745 185.429 321.745 184C321.745 182.549 321.489 181.312 320.977 180.288C320.486 179.243 319.793 178.443 318.897 177.888C318.001 177.333 316.945 177.056 315.729 177.056ZM327.568 192V176H329.008L329.104 179.328C329.573 178.176 330.33 177.28 331.376 176.64C332.442 176 333.626 175.68 334.928 175.68C336.314 175.68 337.509 176.011 338.512 176.672C339.536 177.333 340.24 178.304 340.624 179.584C340.901 178.773 341.349 178.08 341.968 177.504C342.586 176.907 343.312 176.448 344.144 176.128C344.976 175.808 345.84 175.648 346.736 175.648C347.845 175.648 348.848 175.872 349.744 176.32C350.661 176.747 351.386 177.408 351.92 178.304C352.474 179.179 352.752 180.277 352.752 181.6V191.968H351.152V181.76C351.152 180.181 350.725 179.008 349.872 178.24C349.04 177.451 347.93 177.056 346.544 177.056C345.541 177.056 344.613 177.301 343.76 177.792C342.906 178.261 342.224 178.933 341.712 179.808C341.221 180.661 340.976 181.653 340.976 182.784V192H339.376V181.792C339.376 180.213 338.949 179.04 338.096 178.272C337.242 177.483 336.133 177.088 334.768 177.088C333.808 177.088 332.901 177.323 332.048 177.792C331.194 178.261 330.501 178.933 329.968 179.808C329.434 180.683 329.168 181.728 329.168 182.944V192H327.568ZM369.645 171.552V187.776C369.645 188.779 369.879 189.547 370.349 190.08C370.839 190.592 371.543 190.848 372.461 190.848C373.058 190.848 373.581 190.752 374.029 190.56C374.498 190.347 374.914 190.048 375.277 189.664L375.885 190.976C375.479 191.381 374.967 191.712 374.349 191.968C373.73 192.203 373.037 192.32 372.269 192.32C371.437 192.32 370.701 192.171 370.061 191.872C369.421 191.552 368.919 191.072 368.557 190.432C368.215 189.792 368.045 188.981 368.045 188V172L369.645 171.552ZM375.629 176V177.376H364.845V176H375.629ZM378.699 192V168.64H380.299V179.264C380.768 178.133 381.526 177.259 382.571 176.64C383.616 176 384.822 175.68 386.187 175.68C387.382 175.68 388.438 175.904 389.355 176.352C390.272 176.779 390.987 177.44 391.499 178.336C392.032 179.211 392.299 180.299 392.299 181.6V192H390.699V182.112C390.699 180.384 390.262 179.115 389.387 178.304C388.534 177.472 387.414 177.056 386.027 177.056C385.024 177.056 384.086 177.291 383.211 177.76C382.358 178.229 381.654 178.901 381.099 179.776C380.566 180.651 380.299 181.717 380.299 182.976V192H378.699ZM404 192.32C402.528 192.32 401.216 191.989 400.064 191.328C398.912 190.667 398.005 189.717 397.344 188.48C396.704 187.221 396.384 185.728 396.384 184C396.384 182.272 396.704 180.789 397.344 179.552C398.005 178.293 398.891 177.333 400 176.672C401.109 176.011 402.379 175.68 403.808 175.68C405.259 175.68 406.496 176 407.52 176.64C408.544 177.28 409.333 178.176 409.888 179.328C410.443 180.459 410.72 181.771 410.72 183.264C410.72 183.456 410.709 183.648 410.688 183.84C410.688 184.011 410.677 184.171 410.656 184.32H397.376V182.88H409.952L409.152 183.104C409.131 181.269 408.64 179.808 407.68 178.72C406.741 177.632 405.44 177.088 403.776 177.088C402.624 177.088 401.611 177.365 400.736 177.92C399.861 178.453 399.179 179.243 398.688 180.288C398.197 181.312 397.952 182.549 397.952 184C397.952 185.429 398.197 186.667 398.688 187.712C399.2 188.757 399.904 189.557 400.8 190.112C401.717 190.645 402.773 190.912 403.968 190.912C405.205 190.912 406.261 190.645 407.136 190.112C408.032 189.579 408.725 188.843 409.216 187.904L410.496 188.64C410.112 189.408 409.6 190.069 408.96 190.624C408.32 191.157 407.584 191.573 406.752 191.872C405.92 192.171 405.003 192.32 404 192.32ZM426.084 168.64V188.224C426.084 189.205 426.255 189.899 426.596 190.304C426.937 190.709 427.471 190.912 428.196 190.912C428.644 190.912 428.996 190.88 429.252 190.816C429.529 190.752 429.849 190.645 430.212 190.496L429.988 191.904C429.711 192.032 429.391 192.128 429.028 192.192C428.687 192.277 428.303 192.32 427.876 192.32C426.745 192.32 425.892 192 425.316 191.36C424.761 190.699 424.484 189.675 424.484 188.288V168.64H426.084ZM439.444 192.32C437.972 192.32 436.66 191.989 435.508 191.328C434.356 190.667 433.449 189.717 432.788 188.48C432.148 187.221 431.828 185.728 431.828 184C431.828 182.272 432.148 180.789 432.788 179.552C433.449 178.293 434.335 177.333 435.444 176.672C436.553 176.011 437.823 175.68 439.252 175.68C440.703 175.68 441.94 176 442.964 176.64C443.988 177.28 444.777 178.176 445.332 179.328C445.887 180.459 446.164 181.771 446.164 183.264C446.164 183.456 446.153 183.648 446.132 183.84C446.132 184.011 446.121 184.171 446.1 184.32H432.82V182.88H445.396L444.596 183.104C444.575 181.269 444.084 179.808 443.124 178.72C442.185 177.632 440.884 177.088 439.22 177.088C438.068 177.088 437.055 177.365 436.18 177.92C435.305 178.453 434.623 179.243 434.132 180.288C433.641 181.312 433.396 182.549 433.396 184C433.396 185.429 433.641 186.667 434.132 187.712C434.644 188.757 435.348 189.557 436.244 190.112C437.161 190.645 438.217 190.912 439.412 190.912C440.649 190.912 441.705 190.645 442.58 190.112C443.476 189.579 444.169 188.843 444.66 187.904L445.94 188.64C445.556 189.408 445.044 190.069 444.404 190.624C443.764 191.157 443.028 191.573 442.196 191.872C441.364 192.171 440.447 192.32 439.444 192.32ZM456.076 168.48C456.652 168.48 457.164 168.555 457.612 168.704C458.06 168.853 458.412 169.067 458.668 169.344L458.22 170.624C457.943 170.368 457.644 170.187 457.324 170.08C457.004 169.973 456.631 169.92 456.204 169.92C455.159 169.92 454.348 170.219 453.772 170.816C453.196 171.413 452.908 172.299 452.908 173.472V176V176.576V192H451.308V173.312C451.308 172.587 451.404 171.925 451.596 171.328C451.81 170.731 452.119 170.229 452.524 169.824C452.93 169.397 453.431 169.067 454.028 168.832C454.626 168.597 455.308 168.48 456.076 168.48ZM458.54 176V177.376H448.108V176H458.54ZM462.587 171.552V187.776C462.587 188.779 462.822 189.547 463.291 190.08C463.782 190.592 464.486 190.848 465.403 190.848C466 190.848 466.523 190.752 466.971 190.56C467.44 190.347 467.856 190.048 468.219 189.664L468.827 190.976C468.422 191.381 467.91 191.712 467.291 191.968C466.672 192.203 465.979 192.32 465.211 192.32C464.379 192.32 463.643 192.171 463.003 191.872C462.363 191.552 461.862 191.072 461.499 190.432C461.158 189.792 460.987 188.981 460.987 188V172L462.587 171.552ZM468.571 176V177.376H457.787V176H468.571ZM483.195 171.552V187.776C483.195 188.779 483.43 189.547 483.899 190.08C484.39 190.592 485.094 190.848 486.011 190.848C486.609 190.848 487.131 190.752 487.579 190.56C488.049 190.347 488.465 190.048 488.827 189.664L489.435 190.976C489.03 191.381 488.518 191.712 487.899 191.968C487.281 192.203 486.587 192.32 485.819 192.32C484.987 192.32 484.251 192.171 483.611 191.872C482.971 191.552 482.47 191.072 482.107 190.432C481.766 189.792 481.595 188.981 481.595 188V172L483.195 171.552ZM489.179 176V177.376H478.395V176H489.179ZM498.778 175.68C500.271 175.68 501.583 176.011 502.714 176.672C503.866 177.333 504.762 178.293 505.402 179.552C506.063 180.789 506.394 182.272 506.394 184C506.394 185.728 506.063 187.221 505.402 188.48C504.762 189.717 503.866 190.667 502.714 191.328C501.583 191.989 500.271 192.32 498.778 192.32C497.285 192.32 495.962 191.989 494.81 191.328C493.679 190.667 492.783 189.717 492.122 188.48C491.482 187.221 491.162 185.728 491.162 184C491.162 182.272 491.482 180.789 492.122 179.552C492.783 178.293 493.679 177.333 494.81 176.672C495.962 176.011 497.285 175.68 498.778 175.68ZM498.778 177.056C497.562 177.056 496.506 177.333 495.61 177.888C494.714 178.443 494.01 179.243 493.498 180.288C493.007 181.312 492.762 182.549 492.762 184C492.762 185.429 493.007 186.667 493.498 187.712C494.01 188.757 494.714 189.557 495.61 190.112C496.506 190.667 497.562 190.944 498.778 190.944C499.994 190.944 501.05 190.667 501.946 190.112C502.842 189.557 503.535 188.757 504.026 187.712C504.538 186.667 504.794 185.429 504.794 184C504.794 182.549 504.538 181.312 504.026 180.288C503.535 179.243 502.842 178.443 501.946 177.888C501.05 177.333 499.994 177.056 498.778 177.056ZM527.816 192.32C526.835 192.32 525.917 192.139 525.064 191.776C524.232 191.413 523.517 190.891 522.92 190.208C522.344 189.525 521.917 188.725 521.64 187.808L521.864 187.552L521.736 192H520.296V168.64H521.896V180.288L521.704 180C522.131 178.677 522.888 177.632 523.976 176.864C525.085 176.075 526.365 175.68 527.816 175.68C529.224 175.68 530.472 176.011 531.56 176.672C532.648 177.333 533.512 178.283 534.152 179.52C534.792 180.757 535.112 182.251 535.112 184C535.112 185.728 534.792 187.221 534.152 188.48C533.512 189.717 532.637 190.667 531.528 191.328C530.44 191.989 529.203 192.32 527.816 192.32ZM527.624 190.912C529.437 190.912 530.867 190.293 531.912 189.056C532.979 187.819 533.512 186.133 533.512 184C533.512 181.867 532.989 180.181 531.944 178.944C530.899 177.707 529.469 177.088 527.656 177.088C526.547 177.088 525.555 177.376 524.68 177.952C523.805 178.507 523.123 179.307 522.632 180.352C522.141 181.397 521.896 182.624 521.896 184.032C521.896 185.44 522.141 186.667 522.632 187.712C523.123 188.736 523.795 189.525 524.648 190.08C525.523 190.635 526.515 190.912 527.624 190.912ZM545.909 192.32C544.437 192.32 543.125 191.989 541.973 191.328C540.821 190.667 539.915 189.717 539.253 188.48C538.613 187.221 538.293 185.728 538.293 184C538.293 182.272 538.613 180.789 539.253 179.552C539.915 178.293 540.8 177.333 541.909 176.672C543.019 176.011 544.288 175.68 545.717 175.68C547.168 175.68 548.405 176 549.429 176.64C550.453 177.28 551.243 178.176 551.797 179.328C552.352 180.459 552.629 181.771 552.629 183.264C552.629 183.456 552.619 183.648 552.597 183.84C552.597 184.011 552.587 184.171 552.565 184.32H539.285V182.88H551.861L551.061 183.104C551.04 181.269 550.549 179.808 549.589 178.72C548.651 177.632 547.349 177.088 545.685 177.088C544.533 177.088 543.52 177.365 542.645 177.92C541.771 178.453 541.088 179.243 540.597 180.288C540.107 181.312 539.861 182.549 539.861 184C539.861 185.429 540.107 186.667 540.597 187.712C541.109 188.757 541.813 189.557 542.709 190.112C543.627 190.645 544.683 190.912 545.877 190.912C547.115 190.912 548.171 190.645 549.045 190.112C549.941 189.579 550.635 188.843 551.125 187.904L552.405 188.64C552.021 189.408 551.509 190.069 550.869 190.624C550.229 191.157 549.493 191.573 548.661 191.872C547.829 192.171 546.912 192.32 545.909 192.32ZM570.09 173.056L570.474 174.464C570.453 174.464 570.431 174.464 570.41 174.464C570.389 174.464 570.357 174.464 570.314 174.464C569.269 174.464 568.458 174.741 567.882 175.296C567.327 175.829 567.05 176.587 567.05 177.568L566.026 177.056C566.026 176.245 566.197 175.541 566.538 174.944C566.879 174.347 567.349 173.888 567.946 173.568C568.543 173.227 569.215 173.056 569.962 173.056C570.005 173.056 570.026 173.056 570.026 173.056C570.047 173.056 570.069 173.056 570.09 173.056ZM565.034 190.368C566.613 190.368 567.85 190.699 568.746 191.36C569.642 192.021 570.09 192.907 570.09 194.016C570.09 194.997 569.759 195.851 569.098 196.576C568.458 197.301 567.573 197.867 566.442 198.272C565.311 198.677 564.021 198.88 562.57 198.88C560.159 198.88 558.314 198.464 557.034 197.632C555.754 196.821 555.114 195.797 555.114 194.56C555.114 193.664 555.434 192.885 556.074 192.224C556.735 191.563 557.695 191.168 558.954 191.04L558.826 191.328C558.143 191.136 557.535 190.816 557.002 190.368C556.49 189.92 556.234 189.28 556.234 188.448C556.234 187.552 556.565 186.827 557.226 186.272C557.909 185.696 558.805 185.365 559.914 185.28L561.61 185.856H560.938C559.957 185.92 559.167 186.165 558.57 186.592C557.994 186.997 557.706 187.531 557.706 188.192C557.706 188.917 557.983 189.461 558.538 189.824C559.114 190.187 559.839 190.368 560.714 190.368H565.034ZM562.57 197.536C563.829 197.536 564.906 197.387 565.802 197.088C566.698 196.789 567.381 196.384 567.85 195.872C568.341 195.381 568.586 194.827 568.586 194.208C568.586 193.461 568.255 192.864 567.594 192.416C566.954 191.968 565.973 191.744 564.65 191.744H560.106C559.103 191.744 558.271 191.979 557.61 192.448C556.949 192.917 556.618 193.547 556.618 194.336C556.618 195.296 557.141 196.064 558.186 196.64C559.253 197.237 560.714 197.536 562.57 197.536ZM562.346 175.68C563.605 175.68 564.714 175.904 565.674 176.352C566.655 176.779 567.413 177.387 567.946 178.176C568.479 178.944 568.746 179.851 568.746 180.896C568.746 181.92 568.479 182.837 567.946 183.648C567.413 184.437 566.655 185.056 565.674 185.504C564.714 185.931 563.605 186.144 562.346 186.144C560.319 186.144 558.73 185.664 557.578 184.704C556.447 183.723 555.882 182.453 555.882 180.896C555.882 179.851 556.149 178.944 556.682 178.176C557.237 177.387 557.994 176.779 558.954 176.352C559.935 175.904 561.066 175.68 562.346 175.68ZM562.346 176.992C560.938 176.992 559.786 177.355 558.89 178.08C557.994 178.784 557.546 179.723 557.546 180.896C557.546 182.069 557.994 183.019 558.89 183.744C559.786 184.469 560.938 184.832 562.346 184.832C563.754 184.832 564.895 184.469 565.77 183.744C566.666 183.019 567.114 182.069 567.114 180.896C567.114 179.723 566.666 178.784 565.77 178.08C564.895 177.355 563.754 176.992 562.346 176.992ZM573.759 172.896C573.353 172.896 573.023 172.779 572.767 172.544C572.532 172.288 572.415 171.957 572.415 171.552C572.415 171.147 572.532 170.827 572.767 170.592C573.023 170.336 573.353 170.208 573.759 170.208C574.164 170.208 574.484 170.336 574.719 170.592C574.975 170.827 575.103 171.147 575.103 171.552C575.103 171.957 574.975 172.288 574.719 172.544C574.484 172.779 574.164 172.896 573.759 172.896ZM574.559 176V192H572.959V176H574.559ZM579.888 192V176H581.328L581.456 180L581.2 179.776C581.499 178.901 581.947 178.165 582.544 177.568C583.141 176.949 583.856 176.48 584.688 176.16C585.52 175.84 586.416 175.68 587.376 175.68C588.571 175.68 589.627 175.904 590.544 176.352C591.461 176.8 592.176 177.461 592.688 178.336C593.221 179.211 593.488 180.309 593.488 181.632V192H591.888V182.144C591.888 180.395 591.451 179.115 590.576 178.304C589.723 177.493 588.603 177.088 587.216 177.088C586.213 177.088 585.275 177.323 584.4 177.792C583.547 178.24 582.843 178.901 582.288 179.776C581.755 180.651 581.488 181.717 581.488 182.976V192H579.888ZM202.687 223.472C202.687 222.085 202.314 221.008 201.567 220.24C200.82 219.472 199.754 219.088 198.367 219.088C197.151 219.088 196.106 219.355 195.231 219.888C194.356 220.4 193.706 221.264 193.279 222.48L191.967 221.648C192.436 220.389 193.215 219.419 194.303 218.736C195.412 218.032 196.778 217.68 198.399 217.68C199.572 217.68 200.596 217.893 201.471 218.32C202.367 218.725 203.06 219.333 203.551 220.144C204.042 220.955 204.287 221.968 204.287 223.184V231.184C204.287 232.315 204.799 232.88 205.823 232.88C206.271 232.88 206.655 232.805 206.975 232.656L206.879 233.936C206.516 234.128 206.047 234.224 205.471 234.224C204.98 234.224 204.522 234.128 204.095 233.936C203.668 233.744 203.316 233.424 203.039 232.976C202.783 232.528 202.655 231.92 202.655 231.152V230.288L203.103 230.256C202.911 231.173 202.484 231.941 201.823 232.56C201.183 233.157 200.436 233.605 199.583 233.904C198.73 234.181 197.876 234.32 197.023 234.32C196.02 234.32 195.124 234.16 194.335 233.84C193.546 233.52 192.927 233.061 192.479 232.464C192.031 231.845 191.807 231.088 191.807 230.192C191.807 228.997 192.202 228.037 192.991 227.312C193.802 226.565 194.932 226.053 196.383 225.776L203.007 224.464V225.808L197.183 226.96C195.924 227.216 194.986 227.589 194.367 228.08C193.748 228.571 193.439 229.243 193.439 230.096C193.439 230.971 193.77 231.664 194.431 232.176C195.092 232.667 196.031 232.912 197.247 232.912C197.866 232.912 198.495 232.827 199.135 232.656C199.775 232.485 200.362 232.219 200.895 231.856C201.45 231.472 201.887 231.003 202.207 230.448C202.527 229.872 202.687 229.179 202.687 228.368V223.472ZM215.326 234.32C213.705 234.32 212.265 233.989 211.006 233.328C209.769 232.667 208.894 231.717 208.382 230.48L209.758 229.552C210.142 230.619 210.825 231.451 211.806 232.048C212.809 232.624 214.025 232.912 215.454 232.912C216.862 232.912 217.961 232.635 218.75 232.08C219.561 231.525 219.966 230.789 219.966 229.872C219.966 229.253 219.763 228.72 219.358 228.272C218.974 227.803 218.238 227.451 217.15 227.216L213.406 226.416C211.87 226.096 210.771 225.584 210.11 224.88C209.47 224.155 209.15 223.28 209.15 222.256C209.15 221.403 209.406 220.635 209.918 219.952C210.43 219.269 211.134 218.725 212.03 218.32C212.947 217.893 214.014 217.68 215.23 217.68C216.83 217.68 218.153 218 219.198 218.64C220.243 219.259 220.979 220.197 221.406 221.456L220.062 222.32C219.742 221.189 219.145 220.368 218.27 219.856C217.417 219.344 216.403 219.088 215.23 219.088C214.334 219.088 213.545 219.227 212.862 219.504C212.201 219.76 211.678 220.123 211.294 220.592C210.931 221.04 210.75 221.563 210.75 222.16C210.75 222.779 210.963 223.344 211.39 223.856C211.817 224.347 212.574 224.709 213.662 224.944L217.502 225.776C219.017 226.096 220.073 226.587 220.67 227.248C221.267 227.888 221.566 228.688 221.566 229.648C221.566 230.608 221.31 231.44 220.798 232.144C220.286 232.848 219.561 233.392 218.622 233.776C217.683 234.139 216.585 234.32 215.326 234.32ZM231.099 234.32C229.478 234.32 228.038 233.989 226.779 233.328C225.542 232.667 224.667 231.717 224.155 230.48L225.531 229.552C225.915 230.619 226.598 231.451 227.579 232.048C228.582 232.624 229.798 232.912 231.227 232.912C232.635 232.912 233.734 232.635 234.523 232.08C235.334 231.525 235.739 230.789 235.739 229.872C235.739 229.253 235.536 228.72 235.131 228.272C234.747 227.803 234.011 227.451 232.923 227.216L229.179 226.416C227.643 226.096 226.544 225.584 225.883 224.88C225.243 224.155 224.923 223.28 224.923 222.256C224.923 221.403 225.179 220.635 225.691 219.952C226.203 219.269 226.907 218.725 227.803 218.32C228.72 217.893 229.787 217.68 231.003 217.68C232.603 217.68 233.926 218 234.971 218.64C236.016 219.259 236.752 220.197 237.179 221.456L235.835 222.32C235.515 221.189 234.918 220.368 234.043 219.856C233.19 219.344 232.176 219.088 231.003 219.088C230.107 219.088 229.318 219.227 228.635 219.504C227.974 219.76 227.451 220.123 227.067 220.592C226.704 221.04 226.523 221.563 226.523 222.16C226.523 222.779 226.736 223.344 227.163 223.856C227.59 224.347 228.347 224.709 229.435 224.944L233.275 225.776C234.79 226.096 235.846 226.587 236.443 227.248C237.04 227.888 237.339 228.688 237.339 229.648C237.339 230.608 237.083 231.44 236.571 232.144C236.059 232.848 235.334 233.392 234.395 233.776C233.456 234.139 232.358 234.32 231.099 234.32ZM247.992 234.32C246.52 234.32 245.208 233.989 244.056 233.328C242.904 232.667 241.997 231.717 241.336 230.48C240.696 229.221 240.376 227.728 240.376 226C240.376 224.272 240.696 222.789 241.336 221.552C241.997 220.293 242.883 219.333 243.992 218.672C245.101 218.011 246.371 217.68 247.8 217.68C249.251 217.68 250.488 218 251.512 218.64C252.536 219.28 253.325 220.176 253.88 221.328C254.435 222.459 254.712 223.771 254.712 225.264C254.712 225.456 254.701 225.648 254.68 225.84C254.68 226.011 254.669 226.171 254.648 226.32H241.368V224.88H253.944L253.144 225.104C253.123 223.269 252.632 221.808 251.672 220.72C250.733 219.632 249.432 219.088 247.768 219.088C246.616 219.088 245.603 219.365 244.728 219.92C243.853 220.453 243.171 221.243 242.68 222.288C242.189 223.312 241.944 224.549 241.944 226C241.944 227.429 242.189 228.667 242.68 229.712C243.192 230.757 243.896 231.557 244.792 232.112C245.709 232.645 246.765 232.912 247.96 232.912C249.197 232.912 250.253 232.645 251.128 232.112C252.024 231.579 252.717 230.843 253.208 229.904L254.488 230.64C254.104 231.408 253.592 232.069 252.952 232.624C252.312 233.157 251.576 233.573 250.744 233.872C249.912 234.171 248.995 234.32 247.992 234.32ZM258.925 234V218H260.365L260.461 221.328C260.93 220.176 261.687 219.28 262.733 218.64C263.799 218 264.983 217.68 266.285 217.68C267.671 217.68 268.866 218.011 269.869 218.672C270.893 219.333 271.597 220.304 271.981 221.584C272.258 220.773 272.706 220.08 273.325 219.504C273.943 218.907 274.669 218.448 275.501 218.128C276.333 217.808 277.197 217.648 278.093 217.648C279.202 217.648 280.205 217.872 281.101 218.32C282.018 218.747 282.743 219.408 283.277 220.304C283.831 221.179 284.109 222.277 284.109 223.6V233.968H282.509V223.76C282.509 222.181 282.082 221.008 281.229 220.24C280.397 219.451 279.287 219.056 277.901 219.056C276.898 219.056 275.97 219.301 275.117 219.792C274.263 220.261 273.581 220.933 273.069 221.808C272.578 222.661 272.333 223.653 272.333 224.784V234H270.733V223.792C270.733 222.213 270.306 221.04 269.453 220.272C268.599 219.483 267.49 219.088 266.125 219.088C265.165 219.088 264.258 219.323 263.405 219.792C262.551 220.261 261.858 220.933 261.325 221.808C260.791 222.683 260.525 223.728 260.525 224.944V234H258.925ZM296.811 234.32C295.83 234.32 294.913 234.139 294.059 233.776C293.227 233.413 292.513 232.891 291.915 232.208C291.339 231.525 290.913 230.725 290.635 229.808L290.859 229.552L290.731 234H289.291V210.64H290.891V222.288L290.699 222C291.126 220.677 291.883 219.632 292.971 218.864C294.081 218.075 295.361 217.68 296.811 217.68C298.219 217.68 299.467 218.011 300.555 218.672C301.643 219.333 302.507 220.283 303.147 221.52C303.787 222.757 304.107 224.251 304.107 226C304.107 227.728 303.787 229.221 303.147 230.48C302.507 231.717 301.633 232.667 300.523 233.328C299.435 233.989 298.198 234.32 296.811 234.32ZM296.619 232.912C298.433 232.912 299.862 232.293 300.907 231.056C301.974 229.819 302.507 228.133 302.507 226C302.507 223.867 301.985 222.181 300.939 220.944C299.894 219.707 298.465 219.088 296.651 219.088C295.542 219.088 294.55 219.376 293.675 219.952C292.801 220.507 292.118 221.307 291.627 222.352C291.137 223.397 290.891 224.624 290.891 226.032C290.891 227.44 291.137 228.667 291.627 229.712C292.118 230.736 292.79 231.525 293.643 232.08C294.518 232.635 295.51 232.912 296.619 232.912ZM309.849 210.64V230.224C309.849 231.205 310.02 231.899 310.361 232.304C310.702 232.709 311.236 232.912 311.961 232.912C312.409 232.912 312.761 232.88 313.017 232.816C313.294 232.752 313.614 232.645 313.977 232.496L313.753 233.904C313.476 234.032 313.156 234.128 312.793 234.192C312.452 234.277 312.068 234.32 311.641 234.32C310.51 234.32 309.657 234 309.081 233.36C308.526 232.699 308.249 231.675 308.249 230.288V210.64H309.849ZM317.606 214.896C317.201 214.896 316.87 214.779 316.614 214.544C316.379 214.288 316.262 213.957 316.262 213.552C316.262 213.147 316.379 212.827 316.614 212.592C316.87 212.336 317.201 212.208 317.606 212.208C318.011 212.208 318.331 212.336 318.566 212.592C318.822 212.827 318.95 213.147 318.95 213.552C318.95 213.957 318.822 214.288 318.566 214.544C318.331 214.779 318.011 214.896 317.606 214.896ZM318.406 218V234H316.806V218H318.406ZM323.735 234V218H325.175L325.303 222L325.047 221.776C325.346 220.901 325.794 220.165 326.391 219.568C326.989 218.949 327.703 218.48 328.535 218.16C329.367 217.84 330.263 217.68 331.223 217.68C332.418 217.68 333.474 217.904 334.391 218.352C335.309 218.8 336.023 219.461 336.535 220.336C337.069 221.211 337.335 222.309 337.335 223.632V234H335.735V224.144C335.735 222.395 335.298 221.115 334.423 220.304C333.57 219.493 332.45 219.088 331.063 219.088C330.061 219.088 329.122 219.323 328.247 219.792C327.394 220.24 326.69 220.901 326.135 221.776C325.602 222.651 325.335 223.717 325.335 224.976V234H323.735ZM355.756 215.056L356.14 216.464C356.119 216.464 356.098 216.464 356.076 216.464C356.055 216.464 356.023 216.464 355.98 216.464C354.935 216.464 354.124 216.741 353.548 217.296C352.994 217.829 352.716 218.587 352.716 219.568L351.692 219.056C351.692 218.245 351.863 217.541 352.204 216.944C352.546 216.347 353.015 215.888 353.612 215.568C354.21 215.227 354.882 215.056 355.628 215.056C355.671 215.056 355.692 215.056 355.692 215.056C355.714 215.056 355.735 215.056 355.756 215.056ZM350.7 232.368C352.279 232.368 353.516 232.699 354.412 233.36C355.308 234.021 355.756 234.907 355.756 236.016C355.756 236.997 355.426 237.851 354.764 238.576C354.124 239.301 353.239 239.867 352.108 240.272C350.978 240.677 349.687 240.88 348.236 240.88C345.826 240.88 343.98 240.464 342.7 239.632C341.42 238.821 340.78 237.797 340.78 236.56C340.78 235.664 341.1 234.885 341.74 234.224C342.402 233.563 343.362 233.168 344.62 233.04L344.492 233.328C343.81 233.136 343.202 232.816 342.668 232.368C342.156 231.92 341.9 231.28 341.9 230.448C341.9 229.552 342.231 228.827 342.892 228.272C343.575 227.696 344.471 227.365 345.58 227.28L347.276 227.856H346.604C345.623 227.92 344.834 228.165 344.236 228.592C343.66 228.997 343.372 229.531 343.372 230.192C343.372 230.917 343.65 231.461 344.204 231.824C344.78 232.187 345.506 232.368 346.38 232.368H350.7ZM348.236 239.536C349.495 239.536 350.572 239.387 351.468 239.088C352.364 238.789 353.047 238.384 353.516 237.872C354.007 237.381 354.252 236.827 354.252 236.208C354.252 235.461 353.922 234.864 353.26 234.416C352.62 233.968 351.639 233.744 350.316 233.744H345.772C344.77 233.744 343.938 233.979 343.276 234.448C342.615 234.917 342.284 235.547 342.284 236.336C342.284 237.296 342.807 238.064 343.852 238.64C344.919 239.237 346.38 239.536 348.236 239.536ZM348.012 217.68C349.271 217.68 350.38 217.904 351.34 218.352C352.322 218.779 353.079 219.387 353.612 220.176C354.146 220.944 354.412 221.851 354.412 222.896C354.412 223.92 354.146 224.837 353.612 225.648C353.079 226.437 352.322 227.056 351.34 227.504C350.38 227.931 349.271 228.144 348.012 228.144C345.986 228.144 344.396 227.664 343.244 226.704C342.114 225.723 341.548 224.453 341.548 222.896C341.548 221.851 341.815 220.944 342.348 220.176C342.903 219.387 343.66 218.779 344.62 218.352C345.602 217.904 346.732 217.68 348.012 217.68ZM348.012 218.992C346.604 218.992 345.452 219.355 344.556 220.08C343.66 220.784 343.212 221.723 343.212 222.896C343.212 224.069 343.66 225.019 344.556 225.744C345.452 226.469 346.604 226.832 348.012 226.832C349.42 226.832 350.562 226.469 351.436 225.744C352.332 225.019 352.78 224.069 352.78 222.896C352.78 221.723 352.332 220.784 351.436 220.08C350.562 219.355 349.42 218.992 348.012 218.992ZM380.1 218L372.356 236.944C371.972 237.925 371.556 238.704 371.108 239.28C370.66 239.856 370.159 240.261 369.604 240.496C369.049 240.752 368.409 240.88 367.684 240.88C367.044 240.88 366.457 240.784 365.924 240.592C365.391 240.4 364.953 240.133 364.612 239.792L365.124 238.416C365.444 238.8 365.828 239.067 366.276 239.216C366.724 239.387 367.183 239.472 367.652 239.472C368.335 239.472 368.943 239.269 369.476 238.864C370.009 238.48 370.511 237.712 370.98 236.56L372.036 234L370.34 230.032L365.284 218H367.108L372.004 230.128L372.804 232.272L373.668 229.968L378.372 218H380.1ZM389.449 217.68C390.942 217.68 392.254 218.011 393.385 218.672C394.537 219.333 395.433 220.293 396.073 221.552C396.734 222.789 397.065 224.272 397.065 226C397.065 227.728 396.734 229.221 396.073 230.48C395.433 231.717 394.537 232.667 393.385 233.328C392.254 233.989 390.942 234.32 389.449 234.32C387.956 234.32 386.633 233.989 385.481 233.328C384.35 232.667 383.454 231.717 382.793 230.48C382.153 229.221 381.833 227.728 381.833 226C381.833 224.272 382.153 222.789 382.793 221.552C383.454 220.293 384.35 219.333 385.481 218.672C386.633 218.011 387.956 217.68 389.449 217.68ZM389.449 219.056C388.233 219.056 387.177 219.333 386.281 219.888C385.385 220.443 384.681 221.243 384.169 222.288C383.678 223.312 383.433 224.549 383.433 226C383.433 227.429 383.678 228.667 384.169 229.712C384.681 230.757 385.385 231.557 386.281 232.112C387.177 232.667 388.233 232.944 389.449 232.944C390.665 232.944 391.721 232.667 392.617 232.112C393.513 231.557 394.206 230.757 394.697 229.712C395.209 228.667 395.465 227.429 395.465 226C395.465 224.549 395.209 223.312 394.697 222.288C394.206 221.243 393.513 220.443 392.617 219.888C391.721 219.333 390.665 219.056 389.449 219.056ZM406.92 234.32C405.811 234.32 404.819 234.117 403.944 233.712C403.069 233.307 402.376 232.677 401.864 231.824C401.373 230.949 401.128 229.861 401.128 228.56V218H402.728V228.176C402.728 229.84 403.123 231.045 403.912 231.792C404.723 232.539 405.853 232.912 407.304 232.912C408.157 232.912 408.925 232.763 409.608 232.464C410.312 232.165 410.909 231.749 411.4 231.216C411.891 230.683 412.264 230.075 412.52 229.392C412.797 228.709 412.936 227.973 412.936 227.184V218H414.536V234H413.096L413.032 230.704C412.563 231.835 411.795 232.72 410.728 233.36C409.661 234 408.392 234.32 406.92 234.32ZM419.873 234V218H421.217L421.409 221.36C421.815 220.229 422.465 219.333 423.361 218.672C424.257 218.011 425.335 217.68 426.593 217.68C427.02 217.68 427.404 217.723 427.745 217.808C428.087 217.893 428.364 218.032 428.577 218.224L428.225 219.632C427.991 219.483 427.735 219.365 427.457 219.28C427.18 219.195 426.764 219.152 426.209 219.152C425.399 219.152 424.631 219.408 423.905 219.92C423.18 220.411 422.593 221.104 422.145 222C421.697 222.875 421.473 223.888 421.473 225.04V234H419.873ZM446.977 217.68C448.065 217.68 449.036 217.851 449.889 218.192C450.742 218.533 451.468 219.024 452.065 219.664C452.662 220.304 453.121 221.083 453.441 222L451.937 222.704C451.596 221.552 450.998 220.667 450.145 220.048C449.313 219.408 448.246 219.088 446.945 219.088C445.772 219.088 444.737 219.365 443.841 219.92C442.945 220.453 442.252 221.243 441.761 222.288C441.27 223.312 441.025 224.549 441.025 226C441.025 227.429 441.27 228.667 441.761 229.712C442.252 230.757 442.934 231.557 443.809 232.112C444.684 232.645 445.718 232.912 446.913 232.912C447.809 232.912 448.62 232.763 449.345 232.464C450.092 232.165 450.7 231.728 451.169 231.152C451.66 230.576 451.98 229.893 452.129 229.104L453.601 229.616C453.324 230.597 452.865 231.44 452.225 232.144C451.606 232.848 450.849 233.392 449.953 233.776C449.057 234.139 448.054 234.32 446.945 234.32C445.494 234.32 444.193 233.989 443.041 233.328C441.91 232.667 441.025 231.717 440.385 230.48C439.745 229.221 439.425 227.728 439.425 226C439.425 224.272 439.745 222.789 440.385 221.552C441.046 220.293 441.942 219.333 443.073 218.672C444.225 218.011 445.526 217.68 446.977 217.68ZM464.064 217.68C465.557 217.68 466.869 218.011 468 218.672C469.152 219.333 470.048 220.293 470.688 221.552C471.349 222.789 471.68 224.272 471.68 226C471.68 227.728 471.349 229.221 470.688 230.48C470.048 231.717 469.152 232.667 468 233.328C466.869 233.989 465.557 234.32 464.064 234.32C462.571 234.32 461.248 233.989 460.096 233.328C458.965 232.667 458.069 231.717 457.408 230.48C456.768 229.221 456.448 227.728 456.448 226C456.448 224.272 456.768 222.789 457.408 221.552C458.069 220.293 458.965 219.333 460.096 218.672C461.248 218.011 462.571 217.68 464.064 217.68ZM464.064 219.056C462.848 219.056 461.792 219.333 460.896 219.888C460 220.443 459.296 221.243 458.784 222.288C458.293 223.312 458.048 224.549 458.048 226C458.048 227.429 458.293 228.667 458.784 229.712C459.296 230.757 460 231.557 460.896 232.112C461.792 232.667 462.848 232.944 464.064 232.944C465.28 232.944 466.336 232.667 467.232 232.112C468.128 231.557 468.821 230.757 469.312 229.712C469.824 228.667 470.08 227.429 470.08 226C470.08 224.549 469.824 223.312 469.312 222.288C468.821 221.243 468.128 220.443 467.232 219.888C466.336 219.333 465.28 219.056 464.064 219.056ZM482.143 234.32C480.756 234.32 479.508 233.989 478.399 233.328C477.29 232.667 476.415 231.717 475.775 230.48C475.156 229.221 474.847 227.728 474.847 226C474.847 224.229 475.178 222.725 475.839 221.488C476.5 220.251 477.396 219.312 478.527 218.672C479.658 218.011 480.906 217.68 482.271 217.68C483.764 217.68 485.034 218.075 486.079 218.864C487.146 219.653 487.86 220.752 488.223 222.16L488.031 222.288V210.64H489.631V234H488.191L488.095 229.552L488.287 229.488C488.095 230.512 487.7 231.387 487.103 232.112C486.527 232.837 485.802 233.392 484.927 233.776C484.074 234.139 483.146 234.32 482.143 234.32ZM482.335 232.912C483.466 232.912 484.458 232.635 485.311 232.08C486.164 231.504 486.826 230.683 487.295 229.616C487.786 228.549 488.031 227.301 488.031 225.872C488.031 224.464 487.786 223.259 487.295 222.256C486.826 221.232 486.164 220.453 485.311 219.92C484.479 219.365 483.508 219.088 482.399 219.088C480.564 219.088 479.114 219.707 478.047 220.944C476.98 222.181 476.447 223.867 476.447 226C476.447 228.133 476.97 229.819 478.015 231.056C479.082 232.293 480.522 232.912 482.335 232.912ZM501.516 234.32C500.044 234.32 498.732 233.989 497.58 233.328C496.428 232.667 495.522 231.717 494.86 230.48C494.22 229.221 493.9 227.728 493.9 226C493.9 224.272 494.22 222.789 494.86 221.552C495.522 220.293 496.407 219.333 497.516 218.672C498.626 218.011 499.895 217.68 501.324 217.68C502.775 217.68 504.012 218 505.036 218.64C506.06 219.28 506.85 220.176 507.404 221.328C507.959 222.459 508.236 223.771 508.236 225.264C508.236 225.456 508.226 225.648 508.204 225.84C508.204 226.011 508.194 226.171 508.172 226.32H494.892V224.88H507.468L506.668 225.104C506.647 223.269 506.156 221.808 505.196 220.72C504.258 219.632 502.956 219.088 501.292 219.088C500.14 219.088 499.127 219.365 498.252 219.92C497.378 220.453 496.695 221.243 496.204 222.288C495.714 223.312 495.468 224.549 495.468 226C495.468 227.429 495.714 228.667 496.204 229.712C496.716 230.757 497.42 231.557 498.316 232.112C499.234 232.645 500.29 232.912 501.484 232.912C502.722 232.912 503.778 232.645 504.652 232.112C505.548 231.579 506.242 230.843 506.732 229.904L508.012 230.64C507.628 231.408 507.116 232.069 506.476 232.624C505.836 233.157 505.1 233.573 504.268 233.872C503.436 234.171 502.519 234.32 501.516 234.32Z" fill="#171715"/>
<path d="M605.434 0.658203H119.176C118.478 0.658203 117.805 0.934806 117.318 1.43533L99.5265 16.3982C98.5381 17.3861 97.1938 17.9393 95.7969 17.9393H71.5874C70.1905 17.9393 68.8463 17.3861 67.8578 16.3982L50.0665 1.43533C49.5657 0.934806 48.9067 0.658203 48.2083 0.658203H8.56646C4.20428 0.658203 0.65918 4.20136 0.65918 8.56115V88.8419C0.65918 93.2017 4.20428 96.7449 8.56646 96.7449H48.8804C49.5789 96.7449 50.251 97.0215 50.7386 97.522L67.8447 111.8C68.8331 112.788 70.1773 113.341 71.5743 113.341H95.7837C97.1807 113.341 98.5249 112.788 99.5133 111.8L116.633 97.522C117.133 97.0215 117.792 96.7449 118.491 96.7449H605.434C609.796 96.7449 613.341 93.2017 613.341 88.8419V8.56115C613.341 4.20136 609.796 0.658203 605.434 0.658203ZM585.692 74.2873C585.692 77.1982 583.333 79.556 580.421 79.556H172.875C169.963 79.556 167.604 77.1982 167.604 74.2873V23.6294C167.604 20.7185 169.963 18.3608 172.875 18.3608H580.421C583.333 18.3608 585.692 20.7185 585.692 23.6294V74.2873Z" fill="#53565A" fill-opacity="0.21" stroke="#53565A" stroke-miterlimit="10" stroke-dasharray="5 5"/>
</svg>
